%TF.GenerationSoftware,KiCad,Pcbnew,10.0.1*%
%TF.CreationDate,2026-05-08T12:30:20-05:00*%
%TF.ProjectId,Breadboard Power Supply,42726561-6462-46f6-9172-6420506f7765,2*%
%TF.SameCoordinates,Original*%
%TF.FileFunction,Plated,1,2,PTH,Mixed*%
%TF.FilePolarity,Positive*%
%FSLAX46Y46*%
G04 Gerber Fmt 4.6, Leading zero omitted, Abs format (unit mm)*
G04 Created by KiCad (PCBNEW 10.0.1) date 2026-05-08 12:30:20*
%MOMM*%
%LPD*%
G01*
G04 APERTURE LIST*
%TA.AperFunction,ViaDrill*%
%ADD10C,0.400000*%
%TD*%
%TA.AperFunction,ComponentDrill*%
%ADD11C,0.700000*%
%TD*%
%TA.AperFunction,ComponentDrill*%
%ADD12C,0.800000*%
%TD*%
%TA.AperFunction,ComponentDrill*%
%ADD13C,0.900000*%
%TD*%
%TA.AperFunction,ComponentDrill*%
%ADD14C,1.000000*%
%TD*%
G04 aperture for slot hole*
%TA.AperFunction,ComponentDrill*%
%ADD15C,1.000000*%
%TD*%
%TA.AperFunction,ComponentDrill*%
%ADD16C,1.100000*%
%TD*%
%TA.AperFunction,ComponentDrill*%
%ADD17C,1.520000*%
%TD*%
G04 APERTURE END LIST*
D10*
X74930000Y-87884000D03*
D11*
%TO.C,R1*%
X77216000Y-63246000D03*
%TO.C,R3*%
X80500000Y-79507000D03*
%TO.C,R2*%
X80518000Y-83825000D03*
%TO.C,R1*%
X84836000Y-63246000D03*
%TO.C,R3*%
X88120000Y-79507000D03*
%TO.C,R2*%
X88138000Y-83825000D03*
D12*
%TO.C,C3*%
X63266000Y-56388000D03*
%TO.C,C2*%
X64028000Y-90424000D03*
%TO.C,C3*%
X65766000Y-56388000D03*
%TO.C,C2*%
X66528000Y-90424000D03*
%TO.C,C1*%
X68600000Y-56388000D03*
X71100000Y-56388000D03*
D13*
%TO.C,S1*%
X76200000Y-57404000D03*
X78700000Y-57404000D03*
X81200000Y-57404000D03*
%TO.C,D1*%
X81534000Y-69342000D03*
X81534000Y-71882000D03*
D14*
%TO.C,J4*%
X65786000Y-95250000D03*
%TO.C,J7*%
X66294000Y-47498000D03*
%TO.C,J4*%
X68326000Y-95250000D03*
%TO.C,J7*%
X68834000Y-47498000D03*
%TO.C,J1*%
D15*
X69692000Y-71358000D02*
X69692000Y-69358000D01*
D14*
%TO.C,J4*%
X70866000Y-95250000D03*
%TO.C,J7*%
X71374000Y-47498000D03*
%TO.C,J1*%
D15*
X73692000Y-75058000D02*
X71692000Y-75058000D01*
X75692000Y-71358000D02*
X75692000Y-69358000D01*
D14*
%TO.C,J5*%
X91694000Y-93213000D03*
X91694000Y-95753000D03*
%TO.C,J6*%
X91948000Y-47498000D03*
X91948000Y-50038000D03*
D16*
%TO.C,U2*%
X64516000Y-60960000D03*
%TO.C,U1*%
X66802000Y-85598000D03*
%TO.C,U2*%
X67056000Y-60960000D03*
%TO.C,U1*%
X69342000Y-85598000D03*
%TO.C,U2*%
X69596000Y-60960000D03*
%TO.C,U1*%
X71882000Y-85598000D03*
D17*
%TO.C,J2*%
X81280000Y-49728000D03*
%TO.C,J3*%
X81280000Y-93538000D03*
%TO.C,J2*%
X86360000Y-49728000D03*
%TO.C,J3*%
X86360000Y-93538000D03*
M02*
