%TF.GenerationSoftware,KiCad,Pcbnew,10.0.1*%
%TF.CreationDate,2026-05-08T12:29:21-05:00*%
%TF.ProjectId,Breadboard Power Supply,42726561-6462-46f6-9172-6420506f7765,2*%
%TF.SameCoordinates,Original*%
%TF.FileFunction,Legend,Bot*%
%TF.FilePolarity,Positive*%
%FSLAX46Y46*%
G04 Gerber Fmt 4.6, Leading zero omitted, Abs format (unit mm)*
G04 Created by KiCad (PCBNEW 10.0.1) date 2026-05-08 12:29:21*
%MOMM*%
%LPD*%
G01*
G04 APERTURE LIST*
%ADD10C,0.100000*%
%ADD11C,0.010000*%
G04 APERTURE END LIST*
D10*
X87010419Y-57231598D02*
X87724704Y-57231598D01*
X87724704Y-57231598D02*
X87867561Y-57183979D01*
X87867561Y-57183979D02*
X87962800Y-57088741D01*
X87962800Y-57088741D02*
X88010419Y-56945884D01*
X88010419Y-56945884D02*
X88010419Y-56850646D01*
X88010419Y-57850646D02*
X87962800Y-57755408D01*
X87962800Y-57755408D02*
X87915180Y-57707789D01*
X87915180Y-57707789D02*
X87819942Y-57660170D01*
X87819942Y-57660170D02*
X87534228Y-57660170D01*
X87534228Y-57660170D02*
X87438990Y-57707789D01*
X87438990Y-57707789D02*
X87391371Y-57755408D01*
X87391371Y-57755408D02*
X87343752Y-57850646D01*
X87343752Y-57850646D02*
X87343752Y-57993503D01*
X87343752Y-57993503D02*
X87391371Y-58088741D01*
X87391371Y-58088741D02*
X87438990Y-58136360D01*
X87438990Y-58136360D02*
X87534228Y-58183979D01*
X87534228Y-58183979D02*
X87819942Y-58183979D01*
X87819942Y-58183979D02*
X87915180Y-58136360D01*
X87915180Y-58136360D02*
X87962800Y-58088741D01*
X87962800Y-58088741D02*
X88010419Y-57993503D01*
X88010419Y-57993503D02*
X88010419Y-57850646D01*
X87962800Y-58564932D02*
X88010419Y-58660170D01*
X88010419Y-58660170D02*
X88010419Y-58850646D01*
X88010419Y-58850646D02*
X87962800Y-58945884D01*
X87962800Y-58945884D02*
X87867561Y-58993503D01*
X87867561Y-58993503D02*
X87819942Y-58993503D01*
X87819942Y-58993503D02*
X87724704Y-58945884D01*
X87724704Y-58945884D02*
X87677085Y-58850646D01*
X87677085Y-58850646D02*
X87677085Y-58707789D01*
X87677085Y-58707789D02*
X87629466Y-58612551D01*
X87629466Y-58612551D02*
X87534228Y-58564932D01*
X87534228Y-58564932D02*
X87486609Y-58564932D01*
X87486609Y-58564932D02*
X87391371Y-58612551D01*
X87391371Y-58612551D02*
X87343752Y-58707789D01*
X87343752Y-58707789D02*
X87343752Y-58850646D01*
X87343752Y-58850646D02*
X87391371Y-58945884D01*
X87962800Y-59803027D02*
X88010419Y-59707789D01*
X88010419Y-59707789D02*
X88010419Y-59517313D01*
X88010419Y-59517313D02*
X87962800Y-59422075D01*
X87962800Y-59422075D02*
X87867561Y-59374456D01*
X87867561Y-59374456D02*
X87486609Y-59374456D01*
X87486609Y-59374456D02*
X87391371Y-59422075D01*
X87391371Y-59422075D02*
X87343752Y-59517313D01*
X87343752Y-59517313D02*
X87343752Y-59707789D01*
X87343752Y-59707789D02*
X87391371Y-59803027D01*
X87391371Y-59803027D02*
X87486609Y-59850646D01*
X87486609Y-59850646D02*
X87581847Y-59850646D01*
X87581847Y-59850646D02*
X87677085Y-59374456D01*
X88010419Y-61041123D02*
X87010419Y-61041123D01*
X87010419Y-61041123D02*
X87010419Y-61422075D01*
X87010419Y-61422075D02*
X87058038Y-61517313D01*
X87058038Y-61517313D02*
X87105657Y-61564932D01*
X87105657Y-61564932D02*
X87200895Y-61612551D01*
X87200895Y-61612551D02*
X87343752Y-61612551D01*
X87343752Y-61612551D02*
X87438990Y-61564932D01*
X87438990Y-61564932D02*
X87486609Y-61517313D01*
X87486609Y-61517313D02*
X87534228Y-61422075D01*
X87534228Y-61422075D02*
X87534228Y-61041123D01*
X87962800Y-62422075D02*
X88010419Y-62326837D01*
X88010419Y-62326837D02*
X88010419Y-62136361D01*
X88010419Y-62136361D02*
X87962800Y-62041123D01*
X87962800Y-62041123D02*
X87867561Y-61993504D01*
X87867561Y-61993504D02*
X87486609Y-61993504D01*
X87486609Y-61993504D02*
X87391371Y-62041123D01*
X87391371Y-62041123D02*
X87343752Y-62136361D01*
X87343752Y-62136361D02*
X87343752Y-62326837D01*
X87343752Y-62326837D02*
X87391371Y-62422075D01*
X87391371Y-62422075D02*
X87486609Y-62469694D01*
X87486609Y-62469694D02*
X87581847Y-62469694D01*
X87581847Y-62469694D02*
X87677085Y-61993504D01*
X88010419Y-62898266D02*
X87343752Y-62898266D01*
X87534228Y-62898266D02*
X87438990Y-62945885D01*
X87438990Y-62945885D02*
X87391371Y-62993504D01*
X87391371Y-62993504D02*
X87343752Y-63088742D01*
X87343752Y-63088742D02*
X87343752Y-63183980D01*
X87962800Y-63898266D02*
X88010419Y-63803028D01*
X88010419Y-63803028D02*
X88010419Y-63612552D01*
X88010419Y-63612552D02*
X87962800Y-63517314D01*
X87962800Y-63517314D02*
X87867561Y-63469695D01*
X87867561Y-63469695D02*
X87486609Y-63469695D01*
X87486609Y-63469695D02*
X87391371Y-63517314D01*
X87391371Y-63517314D02*
X87343752Y-63612552D01*
X87343752Y-63612552D02*
X87343752Y-63803028D01*
X87343752Y-63803028D02*
X87391371Y-63898266D01*
X87391371Y-63898266D02*
X87486609Y-63945885D01*
X87486609Y-63945885D02*
X87581847Y-63945885D01*
X87581847Y-63945885D02*
X87677085Y-63469695D01*
X87343752Y-64279219D02*
X87343752Y-64803028D01*
X87343752Y-64803028D02*
X88010419Y-64279219D01*
X88010419Y-64279219D02*
X88010419Y-64803028D01*
X87486609Y-66279219D02*
X87486609Y-65945886D01*
X88010419Y-65945886D02*
X87010419Y-65945886D01*
X87010419Y-65945886D02*
X87010419Y-66422076D01*
X88010419Y-66945886D02*
X87962800Y-66850648D01*
X87962800Y-66850648D02*
X87867561Y-66803029D01*
X87867561Y-66803029D02*
X87010419Y-66803029D01*
X88010419Y-67469696D02*
X87962800Y-67374458D01*
X87962800Y-67374458D02*
X87915180Y-67326839D01*
X87915180Y-67326839D02*
X87819942Y-67279220D01*
X87819942Y-67279220D02*
X87534228Y-67279220D01*
X87534228Y-67279220D02*
X87438990Y-67326839D01*
X87438990Y-67326839D02*
X87391371Y-67374458D01*
X87391371Y-67374458D02*
X87343752Y-67469696D01*
X87343752Y-67469696D02*
X87343752Y-67612553D01*
X87343752Y-67612553D02*
X87391371Y-67707791D01*
X87391371Y-67707791D02*
X87438990Y-67755410D01*
X87438990Y-67755410D02*
X87534228Y-67803029D01*
X87534228Y-67803029D02*
X87819942Y-67803029D01*
X87819942Y-67803029D02*
X87915180Y-67755410D01*
X87915180Y-67755410D02*
X87962800Y-67707791D01*
X87962800Y-67707791D02*
X88010419Y-67612553D01*
X88010419Y-67612553D02*
X88010419Y-67469696D01*
X88010419Y-68231601D02*
X87343752Y-68231601D01*
X87534228Y-68231601D02*
X87438990Y-68279220D01*
X87438990Y-68279220D02*
X87391371Y-68326839D01*
X87391371Y-68326839D02*
X87343752Y-68422077D01*
X87343752Y-68422077D02*
X87343752Y-68517315D01*
X87962800Y-69231601D02*
X88010419Y-69136363D01*
X88010419Y-69136363D02*
X88010419Y-68945887D01*
X88010419Y-68945887D02*
X87962800Y-68850649D01*
X87962800Y-68850649D02*
X87867561Y-68803030D01*
X87867561Y-68803030D02*
X87486609Y-68803030D01*
X87486609Y-68803030D02*
X87391371Y-68850649D01*
X87391371Y-68850649D02*
X87343752Y-68945887D01*
X87343752Y-68945887D02*
X87343752Y-69136363D01*
X87343752Y-69136363D02*
X87391371Y-69231601D01*
X87391371Y-69231601D02*
X87486609Y-69279220D01*
X87486609Y-69279220D02*
X87581847Y-69279220D01*
X87581847Y-69279220D02*
X87677085Y-68803030D01*
X87962800Y-69660173D02*
X88010419Y-69755411D01*
X88010419Y-69755411D02*
X88010419Y-69945887D01*
X88010419Y-69945887D02*
X87962800Y-70041125D01*
X87962800Y-70041125D02*
X87867561Y-70088744D01*
X87867561Y-70088744D02*
X87819942Y-70088744D01*
X87819942Y-70088744D02*
X87724704Y-70041125D01*
X87724704Y-70041125D02*
X87677085Y-69945887D01*
X87677085Y-69945887D02*
X87677085Y-69803030D01*
X87677085Y-69803030D02*
X87629466Y-69707792D01*
X87629466Y-69707792D02*
X87534228Y-69660173D01*
X87534228Y-69660173D02*
X87486609Y-69660173D01*
X87486609Y-69660173D02*
X87391371Y-69707792D01*
X87391371Y-69707792D02*
X87343752Y-69803030D01*
X87343752Y-69803030D02*
X87343752Y-69945887D01*
X87343752Y-69945887D02*
X87391371Y-70041125D01*
X87629466Y-71279221D02*
X87629466Y-72041126D01*
X87105657Y-73231602D02*
X87058038Y-73279221D01*
X87058038Y-73279221D02*
X87010419Y-73374459D01*
X87010419Y-73374459D02*
X87010419Y-73612554D01*
X87010419Y-73612554D02*
X87058038Y-73707792D01*
X87058038Y-73707792D02*
X87105657Y-73755411D01*
X87105657Y-73755411D02*
X87200895Y-73803030D01*
X87200895Y-73803030D02*
X87296133Y-73803030D01*
X87296133Y-73803030D02*
X87438990Y-73755411D01*
X87438990Y-73755411D02*
X88010419Y-73183983D01*
X88010419Y-73183983D02*
X88010419Y-73803030D01*
X87010419Y-74422078D02*
X87010419Y-74517316D01*
X87010419Y-74517316D02*
X87058038Y-74612554D01*
X87058038Y-74612554D02*
X87105657Y-74660173D01*
X87105657Y-74660173D02*
X87200895Y-74707792D01*
X87200895Y-74707792D02*
X87391371Y-74755411D01*
X87391371Y-74755411D02*
X87629466Y-74755411D01*
X87629466Y-74755411D02*
X87819942Y-74707792D01*
X87819942Y-74707792D02*
X87915180Y-74660173D01*
X87915180Y-74660173D02*
X87962800Y-74612554D01*
X87962800Y-74612554D02*
X88010419Y-74517316D01*
X88010419Y-74517316D02*
X88010419Y-74422078D01*
X88010419Y-74422078D02*
X87962800Y-74326840D01*
X87962800Y-74326840D02*
X87915180Y-74279221D01*
X87915180Y-74279221D02*
X87819942Y-74231602D01*
X87819942Y-74231602D02*
X87629466Y-74183983D01*
X87629466Y-74183983D02*
X87391371Y-74183983D01*
X87391371Y-74183983D02*
X87200895Y-74231602D01*
X87200895Y-74231602D02*
X87105657Y-74279221D01*
X87105657Y-74279221D02*
X87058038Y-74326840D01*
X87058038Y-74326840D02*
X87010419Y-74422078D01*
X87105657Y-75136364D02*
X87058038Y-75183983D01*
X87058038Y-75183983D02*
X87010419Y-75279221D01*
X87010419Y-75279221D02*
X87010419Y-75517316D01*
X87010419Y-75517316D02*
X87058038Y-75612554D01*
X87058038Y-75612554D02*
X87105657Y-75660173D01*
X87105657Y-75660173D02*
X87200895Y-75707792D01*
X87200895Y-75707792D02*
X87296133Y-75707792D01*
X87296133Y-75707792D02*
X87438990Y-75660173D01*
X87438990Y-75660173D02*
X88010419Y-75088745D01*
X88010419Y-75088745D02*
X88010419Y-75707792D01*
X87010419Y-76564935D02*
X87010419Y-76374459D01*
X87010419Y-76374459D02*
X87058038Y-76279221D01*
X87058038Y-76279221D02*
X87105657Y-76231602D01*
X87105657Y-76231602D02*
X87248514Y-76136364D01*
X87248514Y-76136364D02*
X87438990Y-76088745D01*
X87438990Y-76088745D02*
X87819942Y-76088745D01*
X87819942Y-76088745D02*
X87915180Y-76136364D01*
X87915180Y-76136364D02*
X87962800Y-76183983D01*
X87962800Y-76183983D02*
X88010419Y-76279221D01*
X88010419Y-76279221D02*
X88010419Y-76469697D01*
X88010419Y-76469697D02*
X87962800Y-76564935D01*
X87962800Y-76564935D02*
X87915180Y-76612554D01*
X87915180Y-76612554D02*
X87819942Y-76660173D01*
X87819942Y-76660173D02*
X87581847Y-76660173D01*
X87581847Y-76660173D02*
X87486609Y-76612554D01*
X87486609Y-76612554D02*
X87438990Y-76564935D01*
X87438990Y-76564935D02*
X87391371Y-76469697D01*
X87391371Y-76469697D02*
X87391371Y-76279221D01*
X87391371Y-76279221D02*
X87438990Y-76183983D01*
X87438990Y-76183983D02*
X87486609Y-76136364D01*
X87486609Y-76136364D02*
X87581847Y-76088745D01*
X62422721Y-76583217D02*
X62470340Y-76726074D01*
X62470340Y-76726074D02*
X62517959Y-76773693D01*
X62517959Y-76773693D02*
X62613197Y-76821312D01*
X62613197Y-76821312D02*
X62756054Y-76821312D01*
X62756054Y-76821312D02*
X62851292Y-76773693D01*
X62851292Y-76773693D02*
X62898912Y-76726074D01*
X62898912Y-76726074D02*
X62946531Y-76630836D01*
X62946531Y-76630836D02*
X62946531Y-76249884D01*
X62946531Y-76249884D02*
X61946531Y-76249884D01*
X61946531Y-76249884D02*
X61946531Y-76583217D01*
X61946531Y-76583217D02*
X61994150Y-76678455D01*
X61994150Y-76678455D02*
X62041769Y-76726074D01*
X62041769Y-76726074D02*
X62137007Y-76773693D01*
X62137007Y-76773693D02*
X62232245Y-76773693D01*
X62232245Y-76773693D02*
X62327483Y-76726074D01*
X62327483Y-76726074D02*
X62375102Y-76678455D01*
X62375102Y-76678455D02*
X62422721Y-76583217D01*
X62422721Y-76583217D02*
X62422721Y-76249884D01*
X62946531Y-77249884D02*
X62279864Y-77249884D01*
X62470340Y-77249884D02*
X62375102Y-77297503D01*
X62375102Y-77297503D02*
X62327483Y-77345122D01*
X62327483Y-77345122D02*
X62279864Y-77440360D01*
X62279864Y-77440360D02*
X62279864Y-77535598D01*
X62898912Y-78249884D02*
X62946531Y-78154646D01*
X62946531Y-78154646D02*
X62946531Y-77964170D01*
X62946531Y-77964170D02*
X62898912Y-77868932D01*
X62898912Y-77868932D02*
X62803673Y-77821313D01*
X62803673Y-77821313D02*
X62422721Y-77821313D01*
X62422721Y-77821313D02*
X62327483Y-77868932D01*
X62327483Y-77868932D02*
X62279864Y-77964170D01*
X62279864Y-77964170D02*
X62279864Y-78154646D01*
X62279864Y-78154646D02*
X62327483Y-78249884D01*
X62327483Y-78249884D02*
X62422721Y-78297503D01*
X62422721Y-78297503D02*
X62517959Y-78297503D01*
X62517959Y-78297503D02*
X62613197Y-77821313D01*
X62946531Y-79154646D02*
X62422721Y-79154646D01*
X62422721Y-79154646D02*
X62327483Y-79107027D01*
X62327483Y-79107027D02*
X62279864Y-79011789D01*
X62279864Y-79011789D02*
X62279864Y-78821313D01*
X62279864Y-78821313D02*
X62327483Y-78726075D01*
X62898912Y-79154646D02*
X62946531Y-79059408D01*
X62946531Y-79059408D02*
X62946531Y-78821313D01*
X62946531Y-78821313D02*
X62898912Y-78726075D01*
X62898912Y-78726075D02*
X62803673Y-78678456D01*
X62803673Y-78678456D02*
X62708435Y-78678456D01*
X62708435Y-78678456D02*
X62613197Y-78726075D01*
X62613197Y-78726075D02*
X62565578Y-78821313D01*
X62565578Y-78821313D02*
X62565578Y-79059408D01*
X62565578Y-79059408D02*
X62517959Y-79154646D01*
X62946531Y-80059408D02*
X61946531Y-80059408D01*
X62898912Y-80059408D02*
X62946531Y-79964170D01*
X62946531Y-79964170D02*
X62946531Y-79773694D01*
X62946531Y-79773694D02*
X62898912Y-79678456D01*
X62898912Y-79678456D02*
X62851292Y-79630837D01*
X62851292Y-79630837D02*
X62756054Y-79583218D01*
X62756054Y-79583218D02*
X62470340Y-79583218D01*
X62470340Y-79583218D02*
X62375102Y-79630837D01*
X62375102Y-79630837D02*
X62327483Y-79678456D01*
X62327483Y-79678456D02*
X62279864Y-79773694D01*
X62279864Y-79773694D02*
X62279864Y-79964170D01*
X62279864Y-79964170D02*
X62327483Y-80059408D01*
X62946531Y-80535599D02*
X61946531Y-80535599D01*
X62327483Y-80535599D02*
X62279864Y-80630837D01*
X62279864Y-80630837D02*
X62279864Y-80821313D01*
X62279864Y-80821313D02*
X62327483Y-80916551D01*
X62327483Y-80916551D02*
X62375102Y-80964170D01*
X62375102Y-80964170D02*
X62470340Y-81011789D01*
X62470340Y-81011789D02*
X62756054Y-81011789D01*
X62756054Y-81011789D02*
X62851292Y-80964170D01*
X62851292Y-80964170D02*
X62898912Y-80916551D01*
X62898912Y-80916551D02*
X62946531Y-80821313D01*
X62946531Y-80821313D02*
X62946531Y-80630837D01*
X62946531Y-80630837D02*
X62898912Y-80535599D01*
X62946531Y-81583218D02*
X62898912Y-81487980D01*
X62898912Y-81487980D02*
X62851292Y-81440361D01*
X62851292Y-81440361D02*
X62756054Y-81392742D01*
X62756054Y-81392742D02*
X62470340Y-81392742D01*
X62470340Y-81392742D02*
X62375102Y-81440361D01*
X62375102Y-81440361D02*
X62327483Y-81487980D01*
X62327483Y-81487980D02*
X62279864Y-81583218D01*
X62279864Y-81583218D02*
X62279864Y-81726075D01*
X62279864Y-81726075D02*
X62327483Y-81821313D01*
X62327483Y-81821313D02*
X62375102Y-81868932D01*
X62375102Y-81868932D02*
X62470340Y-81916551D01*
X62470340Y-81916551D02*
X62756054Y-81916551D01*
X62756054Y-81916551D02*
X62851292Y-81868932D01*
X62851292Y-81868932D02*
X62898912Y-81821313D01*
X62898912Y-81821313D02*
X62946531Y-81726075D01*
X62946531Y-81726075D02*
X62946531Y-81583218D01*
X62946531Y-82773694D02*
X62422721Y-82773694D01*
X62422721Y-82773694D02*
X62327483Y-82726075D01*
X62327483Y-82726075D02*
X62279864Y-82630837D01*
X62279864Y-82630837D02*
X62279864Y-82440361D01*
X62279864Y-82440361D02*
X62327483Y-82345123D01*
X62898912Y-82773694D02*
X62946531Y-82678456D01*
X62946531Y-82678456D02*
X62946531Y-82440361D01*
X62946531Y-82440361D02*
X62898912Y-82345123D01*
X62898912Y-82345123D02*
X62803673Y-82297504D01*
X62803673Y-82297504D02*
X62708435Y-82297504D01*
X62708435Y-82297504D02*
X62613197Y-82345123D01*
X62613197Y-82345123D02*
X62565578Y-82440361D01*
X62565578Y-82440361D02*
X62565578Y-82678456D01*
X62565578Y-82678456D02*
X62517959Y-82773694D01*
X62946531Y-83249885D02*
X62279864Y-83249885D01*
X62470340Y-83249885D02*
X62375102Y-83297504D01*
X62375102Y-83297504D02*
X62327483Y-83345123D01*
X62327483Y-83345123D02*
X62279864Y-83440361D01*
X62279864Y-83440361D02*
X62279864Y-83535599D01*
X62946531Y-84297504D02*
X61946531Y-84297504D01*
X62898912Y-84297504D02*
X62946531Y-84202266D01*
X62946531Y-84202266D02*
X62946531Y-84011790D01*
X62946531Y-84011790D02*
X62898912Y-83916552D01*
X62898912Y-83916552D02*
X62851292Y-83868933D01*
X62851292Y-83868933D02*
X62756054Y-83821314D01*
X62756054Y-83821314D02*
X62470340Y-83821314D01*
X62470340Y-83821314D02*
X62375102Y-83868933D01*
X62375102Y-83868933D02*
X62327483Y-83916552D01*
X62327483Y-83916552D02*
X62279864Y-84011790D01*
X62279864Y-84011790D02*
X62279864Y-84202266D01*
X62279864Y-84202266D02*
X62327483Y-84297504D01*
X64556475Y-76249884D02*
X63556475Y-76249884D01*
X63556475Y-76249884D02*
X63556475Y-76630836D01*
X63556475Y-76630836D02*
X63604094Y-76726074D01*
X63604094Y-76726074D02*
X63651713Y-76773693D01*
X63651713Y-76773693D02*
X63746951Y-76821312D01*
X63746951Y-76821312D02*
X63889808Y-76821312D01*
X63889808Y-76821312D02*
X63985046Y-76773693D01*
X63985046Y-76773693D02*
X64032665Y-76726074D01*
X64032665Y-76726074D02*
X64080284Y-76630836D01*
X64080284Y-76630836D02*
X64080284Y-76249884D01*
X64556475Y-77392741D02*
X64508856Y-77297503D01*
X64508856Y-77297503D02*
X64461236Y-77249884D01*
X64461236Y-77249884D02*
X64365998Y-77202265D01*
X64365998Y-77202265D02*
X64080284Y-77202265D01*
X64080284Y-77202265D02*
X63985046Y-77249884D01*
X63985046Y-77249884D02*
X63937427Y-77297503D01*
X63937427Y-77297503D02*
X63889808Y-77392741D01*
X63889808Y-77392741D02*
X63889808Y-77535598D01*
X63889808Y-77535598D02*
X63937427Y-77630836D01*
X63937427Y-77630836D02*
X63985046Y-77678455D01*
X63985046Y-77678455D02*
X64080284Y-77726074D01*
X64080284Y-77726074D02*
X64365998Y-77726074D01*
X64365998Y-77726074D02*
X64461236Y-77678455D01*
X64461236Y-77678455D02*
X64508856Y-77630836D01*
X64508856Y-77630836D02*
X64556475Y-77535598D01*
X64556475Y-77535598D02*
X64556475Y-77392741D01*
X63889808Y-78059408D02*
X64556475Y-78249884D01*
X64556475Y-78249884D02*
X64080284Y-78440360D01*
X64080284Y-78440360D02*
X64556475Y-78630836D01*
X64556475Y-78630836D02*
X63889808Y-78821312D01*
X64508856Y-79583217D02*
X64556475Y-79487979D01*
X64556475Y-79487979D02*
X64556475Y-79297503D01*
X64556475Y-79297503D02*
X64508856Y-79202265D01*
X64508856Y-79202265D02*
X64413617Y-79154646D01*
X64413617Y-79154646D02*
X64032665Y-79154646D01*
X64032665Y-79154646D02*
X63937427Y-79202265D01*
X63937427Y-79202265D02*
X63889808Y-79297503D01*
X63889808Y-79297503D02*
X63889808Y-79487979D01*
X63889808Y-79487979D02*
X63937427Y-79583217D01*
X63937427Y-79583217D02*
X64032665Y-79630836D01*
X64032665Y-79630836D02*
X64127903Y-79630836D01*
X64127903Y-79630836D02*
X64223141Y-79154646D01*
X64556475Y-80059408D02*
X63889808Y-80059408D01*
X64080284Y-80059408D02*
X63985046Y-80107027D01*
X63985046Y-80107027D02*
X63937427Y-80154646D01*
X63937427Y-80154646D02*
X63889808Y-80249884D01*
X63889808Y-80249884D02*
X63889808Y-80345122D01*
X66118800Y-76202265D02*
X66166419Y-76345122D01*
X66166419Y-76345122D02*
X66166419Y-76583217D01*
X66166419Y-76583217D02*
X66118800Y-76678455D01*
X66118800Y-76678455D02*
X66071180Y-76726074D01*
X66071180Y-76726074D02*
X65975942Y-76773693D01*
X65975942Y-76773693D02*
X65880704Y-76773693D01*
X65880704Y-76773693D02*
X65785466Y-76726074D01*
X65785466Y-76726074D02*
X65737847Y-76678455D01*
X65737847Y-76678455D02*
X65690228Y-76583217D01*
X65690228Y-76583217D02*
X65642609Y-76392741D01*
X65642609Y-76392741D02*
X65594990Y-76297503D01*
X65594990Y-76297503D02*
X65547371Y-76249884D01*
X65547371Y-76249884D02*
X65452133Y-76202265D01*
X65452133Y-76202265D02*
X65356895Y-76202265D01*
X65356895Y-76202265D02*
X65261657Y-76249884D01*
X65261657Y-76249884D02*
X65214038Y-76297503D01*
X65214038Y-76297503D02*
X65166419Y-76392741D01*
X65166419Y-76392741D02*
X65166419Y-76630836D01*
X65166419Y-76630836D02*
X65214038Y-76773693D01*
X65499752Y-77630836D02*
X66166419Y-77630836D01*
X65499752Y-77202265D02*
X66023561Y-77202265D01*
X66023561Y-77202265D02*
X66118800Y-77249884D01*
X66118800Y-77249884D02*
X66166419Y-77345122D01*
X66166419Y-77345122D02*
X66166419Y-77487979D01*
X66166419Y-77487979D02*
X66118800Y-77583217D01*
X66118800Y-77583217D02*
X66071180Y-77630836D01*
X65499752Y-78107027D02*
X66499752Y-78107027D01*
X65547371Y-78107027D02*
X65499752Y-78202265D01*
X65499752Y-78202265D02*
X65499752Y-78392741D01*
X65499752Y-78392741D02*
X65547371Y-78487979D01*
X65547371Y-78487979D02*
X65594990Y-78535598D01*
X65594990Y-78535598D02*
X65690228Y-78583217D01*
X65690228Y-78583217D02*
X65975942Y-78583217D01*
X65975942Y-78583217D02*
X66071180Y-78535598D01*
X66071180Y-78535598D02*
X66118800Y-78487979D01*
X66118800Y-78487979D02*
X66166419Y-78392741D01*
X66166419Y-78392741D02*
X66166419Y-78202265D01*
X66166419Y-78202265D02*
X66118800Y-78107027D01*
X65499752Y-79011789D02*
X66499752Y-79011789D01*
X65547371Y-79011789D02*
X65499752Y-79107027D01*
X65499752Y-79107027D02*
X65499752Y-79297503D01*
X65499752Y-79297503D02*
X65547371Y-79392741D01*
X65547371Y-79392741D02*
X65594990Y-79440360D01*
X65594990Y-79440360D02*
X65690228Y-79487979D01*
X65690228Y-79487979D02*
X65975942Y-79487979D01*
X65975942Y-79487979D02*
X66071180Y-79440360D01*
X66071180Y-79440360D02*
X66118800Y-79392741D01*
X66118800Y-79392741D02*
X66166419Y-79297503D01*
X66166419Y-79297503D02*
X66166419Y-79107027D01*
X66166419Y-79107027D02*
X66118800Y-79011789D01*
X66166419Y-80059408D02*
X66118800Y-79964170D01*
X66118800Y-79964170D02*
X66023561Y-79916551D01*
X66023561Y-79916551D02*
X65166419Y-79916551D01*
X65499752Y-80345123D02*
X66166419Y-80583218D01*
X65499752Y-80821313D02*
X66166419Y-80583218D01*
X66166419Y-80583218D02*
X66404514Y-80487980D01*
X66404514Y-80487980D02*
X66452133Y-80440361D01*
X66452133Y-80440361D02*
X66499752Y-80345123D01*
X62484000Y-68072000D02*
X66040000Y-68072000D01*
X66040000Y-73152000D01*
X62484000Y-73152000D01*
X62484000Y-68072000D01*
X63896419Y-68995027D02*
X64896419Y-69328360D01*
X64896419Y-69328360D02*
X63896419Y-69661693D01*
X63896419Y-70185503D02*
X63896419Y-70280741D01*
X63896419Y-70280741D02*
X63944038Y-70375979D01*
X63944038Y-70375979D02*
X63991657Y-70423598D01*
X63991657Y-70423598D02*
X64086895Y-70471217D01*
X64086895Y-70471217D02*
X64277371Y-70518836D01*
X64277371Y-70518836D02*
X64515466Y-70518836D01*
X64515466Y-70518836D02*
X64705942Y-70471217D01*
X64705942Y-70471217D02*
X64801180Y-70423598D01*
X64801180Y-70423598D02*
X64848800Y-70375979D01*
X64848800Y-70375979D02*
X64896419Y-70280741D01*
X64896419Y-70280741D02*
X64896419Y-70185503D01*
X64896419Y-70185503D02*
X64848800Y-70090265D01*
X64848800Y-70090265D02*
X64801180Y-70042646D01*
X64801180Y-70042646D02*
X64705942Y-69995027D01*
X64705942Y-69995027D02*
X64515466Y-69947408D01*
X64515466Y-69947408D02*
X64277371Y-69947408D01*
X64277371Y-69947408D02*
X64086895Y-69995027D01*
X64086895Y-69995027D02*
X63991657Y-70042646D01*
X63991657Y-70042646D02*
X63944038Y-70090265D01*
X63944038Y-70090265D02*
X63896419Y-70185503D01*
X64801180Y-70947408D02*
X64848800Y-70995027D01*
X64848800Y-70995027D02*
X64896419Y-70947408D01*
X64896419Y-70947408D02*
X64848800Y-70899789D01*
X64848800Y-70899789D02*
X64801180Y-70947408D01*
X64801180Y-70947408D02*
X64896419Y-70947408D01*
X64896419Y-71947407D02*
X64896419Y-71375979D01*
X64896419Y-71661693D02*
X63896419Y-71661693D01*
X63896419Y-71661693D02*
X64039276Y-71566455D01*
X64039276Y-71566455D02*
X64134514Y-71471217D01*
X64134514Y-71471217D02*
X64182133Y-71375979D01*
D11*
%TO.C,REF\u002A\u002A*%
X79181264Y-87938873D02*
X79198739Y-87970233D01*
X79199575Y-88006034D01*
X79179082Y-88037472D01*
X79174416Y-88041348D01*
X79164949Y-88046814D01*
X79151267Y-88051021D01*
X79130748Y-88054133D01*
X79100768Y-88056313D01*
X79058704Y-88057724D01*
X79001932Y-88058529D01*
X78927830Y-88058893D01*
X78833773Y-88058978D01*
X78512227Y-88058978D01*
X78490647Y-88032327D01*
X78475877Y-88008614D01*
X78469067Y-87985600D01*
X78474949Y-87964594D01*
X78490647Y-87938873D01*
X78512227Y-87912222D01*
X79159684Y-87912222D01*
X79181264Y-87938873D01*
G36*
X79181264Y-87938873D02*
G01*
X79198739Y-87970233D01*
X79199575Y-88006034D01*
X79179082Y-88037472D01*
X79174416Y-88041348D01*
X79164949Y-88046814D01*
X79151267Y-88051021D01*
X79130748Y-88054133D01*
X79100768Y-88056313D01*
X79058704Y-88057724D01*
X79001932Y-88058529D01*
X78927830Y-88058893D01*
X78833773Y-88058978D01*
X78512227Y-88058978D01*
X78490647Y-88032327D01*
X78475877Y-88008614D01*
X78469067Y-87985600D01*
X78474949Y-87964594D01*
X78490647Y-87938873D01*
X78512227Y-87912222D01*
X79159684Y-87912222D01*
X79181264Y-87938873D01*
G37*
X78921567Y-80772041D02*
X78995789Y-80772299D01*
X79052541Y-80772970D01*
X79094512Y-80774248D01*
X79124389Y-80776327D01*
X79144861Y-80779401D01*
X79158614Y-80783666D01*
X79168337Y-80789316D01*
X79176717Y-80796545D01*
X79198181Y-80828009D01*
X79199947Y-80863174D01*
X79180267Y-80896178D01*
X79174398Y-80901484D01*
X79165314Y-80906934D01*
X79151973Y-80911100D01*
X79131757Y-80914154D01*
X79102049Y-80916268D01*
X79060232Y-80917614D01*
X79003689Y-80918362D01*
X78929802Y-80918686D01*
X78835956Y-80918755D01*
X78760294Y-80918716D01*
X78682385Y-80918461D01*
X78622375Y-80917817D01*
X78577648Y-80916613D01*
X78545585Y-80914676D01*
X78523571Y-80911836D01*
X78508987Y-80907921D01*
X78499218Y-80902758D01*
X78491645Y-80896178D01*
X78472623Y-80866994D01*
X78473463Y-80833863D01*
X78496776Y-80799709D01*
X78524485Y-80772000D01*
X78837537Y-80772000D01*
X78921567Y-80772041D01*
G36*
X78921567Y-80772041D02*
G01*
X78995789Y-80772299D01*
X79052541Y-80772970D01*
X79094512Y-80774248D01*
X79124389Y-80776327D01*
X79144861Y-80779401D01*
X79158614Y-80783666D01*
X79168337Y-80789316D01*
X79176717Y-80796545D01*
X79198181Y-80828009D01*
X79199947Y-80863174D01*
X79180267Y-80896178D01*
X79174398Y-80901484D01*
X79165314Y-80906934D01*
X79151973Y-80911100D01*
X79131757Y-80914154D01*
X79102049Y-80916268D01*
X79060232Y-80917614D01*
X79003689Y-80918362D01*
X78929802Y-80918686D01*
X78835956Y-80918755D01*
X78760294Y-80918716D01*
X78682385Y-80918461D01*
X78622375Y-80917817D01*
X78577648Y-80916613D01*
X78545585Y-80914676D01*
X78523571Y-80911836D01*
X78508987Y-80907921D01*
X78499218Y-80902758D01*
X78491645Y-80896178D01*
X78472623Y-80866994D01*
X78473463Y-80833863D01*
X78496776Y-80799709D01*
X78524485Y-80772000D01*
X78837537Y-80772000D01*
X78921567Y-80772041D01*
G37*
X73734307Y-81015331D02*
X73775450Y-81017540D01*
X73807582Y-81023106D01*
X73838122Y-81033414D01*
X73874489Y-81049852D01*
X73901728Y-81063800D01*
X73987429Y-81122335D01*
X74056617Y-81194381D01*
X74107741Y-81278053D01*
X74139250Y-81371469D01*
X74146225Y-81404566D01*
X74153094Y-81445040D01*
X74154919Y-81478001D01*
X74151947Y-81512302D01*
X74144426Y-81556800D01*
X74132002Y-81608066D01*
X74094112Y-81698566D01*
X74039836Y-81777655D01*
X73971770Y-81843472D01*
X73892511Y-81894160D01*
X73804654Y-81927860D01*
X73710795Y-81942714D01*
X73613530Y-81936864D01*
X73517220Y-81910601D01*
X73428494Y-81865582D01*
X73353419Y-81804627D01*
X73293641Y-81729816D01*
X73250809Y-81643232D01*
X73226571Y-81546957D01*
X73222576Y-81443072D01*
X73232850Y-81365438D01*
X73260053Y-81282687D01*
X73305484Y-81207594D01*
X73371302Y-81135702D01*
X73415567Y-81097154D01*
X73473961Y-81057744D01*
X73534586Y-81032554D01*
X73603865Y-81019139D01*
X73688222Y-81015052D01*
X73734307Y-81015331D01*
G36*
X73734307Y-81015331D02*
G01*
X73775450Y-81017540D01*
X73807582Y-81023106D01*
X73838122Y-81033414D01*
X73874489Y-81049852D01*
X73901728Y-81063800D01*
X73987429Y-81122335D01*
X74056617Y-81194381D01*
X74107741Y-81278053D01*
X74139250Y-81371469D01*
X74146225Y-81404566D01*
X74153094Y-81445040D01*
X74154919Y-81478001D01*
X74151947Y-81512302D01*
X74144426Y-81556800D01*
X74132002Y-81608066D01*
X74094112Y-81698566D01*
X74039836Y-81777655D01*
X73971770Y-81843472D01*
X73892511Y-81894160D01*
X73804654Y-81927860D01*
X73710795Y-81942714D01*
X73613530Y-81936864D01*
X73517220Y-81910601D01*
X73428494Y-81865582D01*
X73353419Y-81804627D01*
X73293641Y-81729816D01*
X73250809Y-81643232D01*
X73226571Y-81546957D01*
X73222576Y-81443072D01*
X73232850Y-81365438D01*
X73260053Y-81282687D01*
X73305484Y-81207594D01*
X73371302Y-81135702D01*
X73415567Y-81097154D01*
X73473961Y-81057744D01*
X73534586Y-81032554D01*
X73603865Y-81019139D01*
X73688222Y-81015052D01*
X73734307Y-81015331D01*
G37*
X78595178Y-88309083D02*
X78596631Y-88310443D01*
X78604992Y-88321646D01*
X78610547Y-88338748D01*
X78613840Y-88365918D01*
X78615418Y-88407322D01*
X78615822Y-88467127D01*
X78615822Y-88606489D01*
X78879589Y-88606489D01*
X78955417Y-88606564D01*
X79022083Y-88606972D01*
X79071867Y-88607954D01*
X79107784Y-88609750D01*
X79132850Y-88612601D01*
X79150081Y-88616747D01*
X79162492Y-88622429D01*
X79173100Y-88629886D01*
X79175906Y-88632176D01*
X79198548Y-88663354D01*
X79200112Y-88697734D01*
X79180267Y-88730666D01*
X79172191Y-88737645D01*
X79161593Y-88743117D01*
X79145749Y-88747137D01*
X79121773Y-88749928D01*
X79086774Y-88751712D01*
X79037864Y-88752711D01*
X78972154Y-88753148D01*
X78886756Y-88753244D01*
X78615822Y-88753244D01*
X78615822Y-88899180D01*
X78615821Y-88910280D01*
X78615596Y-88966798D01*
X78614457Y-89005642D01*
X78611657Y-89031035D01*
X78606450Y-89047196D01*
X78598089Y-89058348D01*
X78585826Y-89068711D01*
X78555138Y-89084559D01*
X78521358Y-89081457D01*
X78488822Y-89055813D01*
X78485105Y-89050871D01*
X78480269Y-89040662D01*
X78476506Y-89025236D01*
X78473683Y-89002114D01*
X78471670Y-88968817D01*
X78470333Y-88922863D01*
X78469542Y-88861772D01*
X78469163Y-88783065D01*
X78469067Y-88684260D01*
X78469068Y-88664233D01*
X78469158Y-88570110D01*
X78469498Y-88495595D01*
X78470239Y-88438189D01*
X78471535Y-88395389D01*
X78473537Y-88364696D01*
X78476396Y-88343609D01*
X78480266Y-88329627D01*
X78485298Y-88320250D01*
X78491645Y-88312978D01*
X78524362Y-88294172D01*
X78561939Y-88292725D01*
X78595178Y-88309083D01*
G36*
X78595178Y-88309083D02*
G01*
X78596631Y-88310443D01*
X78604992Y-88321646D01*
X78610547Y-88338748D01*
X78613840Y-88365918D01*
X78615418Y-88407322D01*
X78615822Y-88467127D01*
X78615822Y-88606489D01*
X78879589Y-88606489D01*
X78955417Y-88606564D01*
X79022083Y-88606972D01*
X79071867Y-88607954D01*
X79107784Y-88609750D01*
X79132850Y-88612601D01*
X79150081Y-88616747D01*
X79162492Y-88622429D01*
X79173100Y-88629886D01*
X79175906Y-88632176D01*
X79198548Y-88663354D01*
X79200112Y-88697734D01*
X79180267Y-88730666D01*
X79172191Y-88737645D01*
X79161593Y-88743117D01*
X79145749Y-88747137D01*
X79121773Y-88749928D01*
X79086774Y-88751712D01*
X79037864Y-88752711D01*
X78972154Y-88753148D01*
X78886756Y-88753244D01*
X78615822Y-88753244D01*
X78615822Y-88899180D01*
X78615821Y-88910280D01*
X78615596Y-88966798D01*
X78614457Y-89005642D01*
X78611657Y-89031035D01*
X78606450Y-89047196D01*
X78598089Y-89058348D01*
X78585826Y-89068711D01*
X78555138Y-89084559D01*
X78521358Y-89081457D01*
X78488822Y-89055813D01*
X78485105Y-89050871D01*
X78480269Y-89040662D01*
X78476506Y-89025236D01*
X78473683Y-89002114D01*
X78471670Y-88968817D01*
X78470333Y-88922863D01*
X78469542Y-88861772D01*
X78469163Y-88783065D01*
X78469067Y-88684260D01*
X78469068Y-88664233D01*
X78469158Y-88570110D01*
X78469498Y-88495595D01*
X78470239Y-88438189D01*
X78471535Y-88395389D01*
X78473537Y-88364696D01*
X78476396Y-88343609D01*
X78480266Y-88329627D01*
X78485298Y-88320250D01*
X78491645Y-88312978D01*
X78524362Y-88294172D01*
X78561939Y-88292725D01*
X78595178Y-88309083D01*
G37*
X78877631Y-89316891D02*
X78994000Y-89317375D01*
X79008175Y-89317443D01*
X79069937Y-89318029D01*
X79113620Y-89319352D01*
X79143001Y-89321897D01*
X79161855Y-89326152D01*
X79173959Y-89332604D01*
X79183089Y-89341738D01*
X79200506Y-89375196D01*
X79197604Y-89410144D01*
X79173100Y-89441047D01*
X79159897Y-89450056D01*
X79141361Y-89457508D01*
X79115333Y-89461876D01*
X79076787Y-89463931D01*
X79020700Y-89464444D01*
X78898045Y-89464444D01*
X78898045Y-89961155D01*
X79032871Y-89961155D01*
X79068662Y-89961228D01*
X79114992Y-89961991D01*
X79145526Y-89964167D01*
X79164557Y-89968464D01*
X79176374Y-89975588D01*
X79185271Y-89986245D01*
X79200341Y-90018496D01*
X79197673Y-90053783D01*
X79173100Y-90084514D01*
X79166845Y-90089169D01*
X79156321Y-90095105D01*
X79142391Y-90099636D01*
X79122317Y-90102952D01*
X79093360Y-90105241D01*
X79052780Y-90106692D01*
X78997840Y-90107495D01*
X78925799Y-90107838D01*
X78833920Y-90107911D01*
X78524485Y-90107911D01*
X78496776Y-90080202D01*
X78474533Y-90048823D01*
X78471844Y-90015594D01*
X78491645Y-89983733D01*
X78501415Y-89975447D01*
X78517307Y-89968035D01*
X78541275Y-89963698D01*
X78578148Y-89961662D01*
X78632756Y-89961155D01*
X78751289Y-89961155D01*
X78751289Y-89464444D01*
X78635776Y-89464444D01*
X78584078Y-89464006D01*
X78549554Y-89462042D01*
X78526978Y-89457526D01*
X78511126Y-89449433D01*
X78496776Y-89436735D01*
X78474533Y-89405357D01*
X78471844Y-89372128D01*
X78491645Y-89340266D01*
X78497835Y-89334634D01*
X78506041Y-89329544D01*
X78517817Y-89325457D01*
X78535276Y-89322279D01*
X78560530Y-89319913D01*
X78595690Y-89318262D01*
X78642869Y-89317231D01*
X78704177Y-89316723D01*
X78781727Y-89316641D01*
X78877631Y-89316891D01*
G36*
X78877631Y-89316891D02*
G01*
X78994000Y-89317375D01*
X79008175Y-89317443D01*
X79069937Y-89318029D01*
X79113620Y-89319352D01*
X79143001Y-89321897D01*
X79161855Y-89326152D01*
X79173959Y-89332604D01*
X79183089Y-89341738D01*
X79200506Y-89375196D01*
X79197604Y-89410144D01*
X79173100Y-89441047D01*
X79159897Y-89450056D01*
X79141361Y-89457508D01*
X79115333Y-89461876D01*
X79076787Y-89463931D01*
X79020700Y-89464444D01*
X78898045Y-89464444D01*
X78898045Y-89961155D01*
X79032871Y-89961155D01*
X79068662Y-89961228D01*
X79114992Y-89961991D01*
X79145526Y-89964167D01*
X79164557Y-89968464D01*
X79176374Y-89975588D01*
X79185271Y-89986245D01*
X79200341Y-90018496D01*
X79197673Y-90053783D01*
X79173100Y-90084514D01*
X79166845Y-90089169D01*
X79156321Y-90095105D01*
X79142391Y-90099636D01*
X79122317Y-90102952D01*
X79093360Y-90105241D01*
X79052780Y-90106692D01*
X78997840Y-90107495D01*
X78925799Y-90107838D01*
X78833920Y-90107911D01*
X78524485Y-90107911D01*
X78496776Y-90080202D01*
X78474533Y-90048823D01*
X78471844Y-90015594D01*
X78491645Y-89983733D01*
X78501415Y-89975447D01*
X78517307Y-89968035D01*
X78541275Y-89963698D01*
X78578148Y-89961662D01*
X78632756Y-89961155D01*
X78751289Y-89961155D01*
X78751289Y-89464444D01*
X78635776Y-89464444D01*
X78584078Y-89464006D01*
X78549554Y-89462042D01*
X78526978Y-89457526D01*
X78511126Y-89449433D01*
X78496776Y-89436735D01*
X78474533Y-89405357D01*
X78471844Y-89372128D01*
X78491645Y-89340266D01*
X78497835Y-89334634D01*
X78506041Y-89329544D01*
X78517817Y-89325457D01*
X78535276Y-89322279D01*
X78560530Y-89319913D01*
X78595690Y-89318262D01*
X78642869Y-89317231D01*
X78704177Y-89316723D01*
X78781727Y-89316641D01*
X78877631Y-89316891D01*
G37*
X78895526Y-84632825D02*
X78974311Y-84633050D01*
X79035021Y-84633668D01*
X79056089Y-84634225D01*
X79080396Y-84634867D01*
X79113175Y-84636837D01*
X79136095Y-84639765D01*
X79151897Y-84643842D01*
X79163319Y-84649257D01*
X79173100Y-84656197D01*
X79202845Y-84679594D01*
X79202251Y-84845286D01*
X79201953Y-84880082D01*
X79198522Y-84978565D01*
X79190839Y-85059527D01*
X79178282Y-85126621D01*
X79160227Y-85183504D01*
X79136052Y-85233831D01*
X79134135Y-85237190D01*
X79097417Y-85295002D01*
X79060451Y-85337356D01*
X79016966Y-85370172D01*
X78960689Y-85399372D01*
X78951073Y-85403654D01*
X78887887Y-85426231D01*
X78832509Y-85433203D01*
X78777483Y-85424601D01*
X78715351Y-85400459D01*
X78713658Y-85399663D01*
X78644236Y-85359212D01*
X78587638Y-85308527D01*
X78543070Y-85245802D01*
X78509741Y-85169226D01*
X78486861Y-85076991D01*
X78473636Y-84967288D01*
X78469275Y-84838309D01*
X78469270Y-84834737D01*
X78469372Y-84790844D01*
X78615822Y-84790844D01*
X78616270Y-84878333D01*
X78618746Y-84945253D01*
X78629998Y-85037651D01*
X78649537Y-85116966D01*
X78676511Y-85178940D01*
X78697240Y-85209880D01*
X78727006Y-85238000D01*
X78769434Y-85261340D01*
X78785400Y-85268467D01*
X78817902Y-85280291D01*
X78842333Y-85282721D01*
X78867061Y-85277108D01*
X78882939Y-85271382D01*
X78942847Y-85238452D01*
X78988600Y-85191114D01*
X79021736Y-85127348D01*
X79043790Y-85045139D01*
X79044292Y-85042345D01*
X79050255Y-84996060D01*
X79054483Y-84939664D01*
X79056089Y-84884726D01*
X79056089Y-84790844D01*
X78615822Y-84790844D01*
X78469372Y-84790844D01*
X78469410Y-84774717D01*
X78470446Y-84732786D01*
X78473040Y-84704672D01*
X78477853Y-84686103D01*
X78485544Y-84672806D01*
X78496776Y-84660509D01*
X78524485Y-84632800D01*
X78833920Y-84632800D01*
X78895526Y-84632825D01*
G36*
X78895526Y-84632825D02*
G01*
X78974311Y-84633050D01*
X79035021Y-84633668D01*
X79056089Y-84634225D01*
X79080396Y-84634867D01*
X79113175Y-84636837D01*
X79136095Y-84639765D01*
X79151897Y-84643842D01*
X79163319Y-84649257D01*
X79173100Y-84656197D01*
X79202845Y-84679594D01*
X79202251Y-84845286D01*
X79201953Y-84880082D01*
X79198522Y-84978565D01*
X79190839Y-85059527D01*
X79178282Y-85126621D01*
X79160227Y-85183504D01*
X79136052Y-85233831D01*
X79134135Y-85237190D01*
X79097417Y-85295002D01*
X79060451Y-85337356D01*
X79016966Y-85370172D01*
X78960689Y-85399372D01*
X78951073Y-85403654D01*
X78887887Y-85426231D01*
X78832509Y-85433203D01*
X78777483Y-85424601D01*
X78715351Y-85400459D01*
X78713658Y-85399663D01*
X78644236Y-85359212D01*
X78587638Y-85308527D01*
X78543070Y-85245802D01*
X78509741Y-85169226D01*
X78486861Y-85076991D01*
X78473636Y-84967288D01*
X78469275Y-84838309D01*
X78469270Y-84834737D01*
X78469372Y-84790844D01*
X78615822Y-84790844D01*
X78616270Y-84878333D01*
X78618746Y-84945253D01*
X78629998Y-85037651D01*
X78649537Y-85116966D01*
X78676511Y-85178940D01*
X78697240Y-85209880D01*
X78727006Y-85238000D01*
X78769434Y-85261340D01*
X78785400Y-85268467D01*
X78817902Y-85280291D01*
X78842333Y-85282721D01*
X78867061Y-85277108D01*
X78882939Y-85271382D01*
X78942847Y-85238452D01*
X78988600Y-85191114D01*
X79021736Y-85127348D01*
X79043790Y-85045139D01*
X79044292Y-85042345D01*
X79050255Y-84996060D01*
X79054483Y-84939664D01*
X79056089Y-84884726D01*
X79056089Y-84790844D01*
X78615822Y-84790844D01*
X78469372Y-84790844D01*
X78469410Y-84774717D01*
X78470446Y-84732786D01*
X78473040Y-84704672D01*
X78477853Y-84686103D01*
X78485544Y-84672806D01*
X78496776Y-84660509D01*
X78524485Y-84632800D01*
X78833920Y-84632800D01*
X78895526Y-84632825D01*
G37*
X78835956Y-77543378D02*
X78911617Y-77543417D01*
X78989526Y-77543672D01*
X79049536Y-77544316D01*
X79094264Y-77545520D01*
X79126326Y-77547457D01*
X79148340Y-77550297D01*
X79162924Y-77554212D01*
X79172694Y-77559374D01*
X79180267Y-77565955D01*
X79186501Y-77572923D01*
X79193801Y-77585921D01*
X79198554Y-77605069D01*
X79201292Y-77634472D01*
X79202545Y-77678238D01*
X79202845Y-77740472D01*
X79202469Y-77789418D01*
X79198041Y-77896278D01*
X79187953Y-77985506D01*
X79171365Y-78060304D01*
X79147435Y-78123875D01*
X79115321Y-78179421D01*
X79074182Y-78230146D01*
X79068330Y-78236134D01*
X79019821Y-78273001D01*
X78959013Y-78304101D01*
X78894769Y-78325583D01*
X78835956Y-78333600D01*
X78814739Y-78332321D01*
X78757323Y-78320009D01*
X78697413Y-78297480D01*
X78643363Y-78268250D01*
X78603532Y-78235833D01*
X78586510Y-78216292D01*
X78547322Y-78161580D01*
X78517193Y-78101277D01*
X78495232Y-78032081D01*
X78480550Y-77950689D01*
X78472259Y-77853800D01*
X78470148Y-77766333D01*
X78615808Y-77766333D01*
X78615817Y-77769361D01*
X78617782Y-77820481D01*
X78622507Y-77880584D01*
X78629035Y-77937292D01*
X78638331Y-77987250D01*
X78664600Y-78062002D01*
X78703899Y-78119511D01*
X78756933Y-78161012D01*
X78808200Y-78182229D01*
X78856026Y-78183647D01*
X78906961Y-78165365D01*
X78952878Y-78135695D01*
X78995287Y-78088998D01*
X79025090Y-78027608D01*
X79044226Y-77948462D01*
X79044464Y-77946972D01*
X79050256Y-77898001D01*
X79054396Y-77839307D01*
X79056004Y-77783266D01*
X79056089Y-77690133D01*
X78615822Y-77690133D01*
X78615808Y-77766333D01*
X78470148Y-77766333D01*
X78469467Y-77738111D01*
X78469066Y-77698629D01*
X78468653Y-77652918D01*
X78470457Y-77617117D01*
X78476739Y-77590026D01*
X78489759Y-77570444D01*
X78511778Y-77557170D01*
X78545055Y-77549002D01*
X78591851Y-77544740D01*
X78615822Y-77544143D01*
X78654427Y-77543183D01*
X78735041Y-77543130D01*
X78835956Y-77543378D01*
G36*
X78835956Y-77543378D02*
G01*
X78911617Y-77543417D01*
X78989526Y-77543672D01*
X79049536Y-77544316D01*
X79094264Y-77545520D01*
X79126326Y-77547457D01*
X79148340Y-77550297D01*
X79162924Y-77554212D01*
X79172694Y-77559374D01*
X79180267Y-77565955D01*
X79186501Y-77572923D01*
X79193801Y-77585921D01*
X79198554Y-77605069D01*
X79201292Y-77634472D01*
X79202545Y-77678238D01*
X79202845Y-77740472D01*
X79202469Y-77789418D01*
X79198041Y-77896278D01*
X79187953Y-77985506D01*
X79171365Y-78060304D01*
X79147435Y-78123875D01*
X79115321Y-78179421D01*
X79074182Y-78230146D01*
X79068330Y-78236134D01*
X79019821Y-78273001D01*
X78959013Y-78304101D01*
X78894769Y-78325583D01*
X78835956Y-78333600D01*
X78814739Y-78332321D01*
X78757323Y-78320009D01*
X78697413Y-78297480D01*
X78643363Y-78268250D01*
X78603532Y-78235833D01*
X78586510Y-78216292D01*
X78547322Y-78161580D01*
X78517193Y-78101277D01*
X78495232Y-78032081D01*
X78480550Y-77950689D01*
X78472259Y-77853800D01*
X78470148Y-77766333D01*
X78615808Y-77766333D01*
X78615817Y-77769361D01*
X78617782Y-77820481D01*
X78622507Y-77880584D01*
X78629035Y-77937292D01*
X78638331Y-77987250D01*
X78664600Y-78062002D01*
X78703899Y-78119511D01*
X78756933Y-78161012D01*
X78808200Y-78182229D01*
X78856026Y-78183647D01*
X78906961Y-78165365D01*
X78952878Y-78135695D01*
X78995287Y-78088998D01*
X79025090Y-78027608D01*
X79044226Y-77948462D01*
X79044464Y-77946972D01*
X79050256Y-77898001D01*
X79054396Y-77839307D01*
X79056004Y-77783266D01*
X79056089Y-77690133D01*
X78615822Y-77690133D01*
X78615808Y-77766333D01*
X78470148Y-77766333D01*
X78469467Y-77738111D01*
X78469066Y-77698629D01*
X78468653Y-77652918D01*
X78470457Y-77617117D01*
X78476739Y-77590026D01*
X78489759Y-77570444D01*
X78511778Y-77557170D01*
X78545055Y-77549002D01*
X78591851Y-77544740D01*
X78615822Y-77544143D01*
X78654427Y-77543183D01*
X78735041Y-77543130D01*
X78835956Y-77543378D01*
G37*
X78894486Y-82431489D02*
X78973573Y-82431708D01*
X79034516Y-82432317D01*
X79080062Y-82433508D01*
X79112963Y-82435471D01*
X79135968Y-82438397D01*
X79151826Y-82442477D01*
X79163286Y-82447903D01*
X79173100Y-82454864D01*
X79197493Y-82485292D01*
X79200372Y-82520235D01*
X79181282Y-82557216D01*
X79177807Y-82561400D01*
X79169279Y-82569576D01*
X79157728Y-82575636D01*
X79139896Y-82580019D01*
X79112524Y-82583161D01*
X79072354Y-82585498D01*
X79016128Y-82587469D01*
X78940589Y-82589511D01*
X78721458Y-82595155D01*
X78962099Y-82860444D01*
X79028875Y-82934278D01*
X79086991Y-82999458D01*
X79131949Y-83051652D01*
X79164871Y-83092727D01*
X79186879Y-83124545D01*
X79199094Y-83148974D01*
X79202639Y-83167876D01*
X79198636Y-83183117D01*
X79188207Y-83196561D01*
X79172474Y-83210073D01*
X79163991Y-83216318D01*
X79153413Y-83221950D01*
X79139255Y-83226161D01*
X79118803Y-83229113D01*
X79089342Y-83230968D01*
X79048161Y-83231887D01*
X78992544Y-83232032D01*
X78919779Y-83231565D01*
X78827151Y-83230648D01*
X78512199Y-83227333D01*
X78490633Y-83200682D01*
X78474441Y-83174617D01*
X78471670Y-83141759D01*
X78490623Y-83107228D01*
X78494208Y-83102916D01*
X78502737Y-83094784D01*
X78514329Y-83088755D01*
X78532235Y-83084394D01*
X78559706Y-83081266D01*
X78599994Y-83078937D01*
X78656351Y-83076971D01*
X78732029Y-83074933D01*
X78951878Y-83069289D01*
X78788084Y-82888666D01*
X78709451Y-82801928D01*
X78641058Y-82726157D01*
X78585708Y-82664020D01*
X78542338Y-82613922D01*
X78509881Y-82574265D01*
X78487273Y-82543452D01*
X78473448Y-82519886D01*
X78467343Y-82501970D01*
X78467892Y-82488107D01*
X78474029Y-82476699D01*
X78484691Y-82466150D01*
X78498811Y-82454864D01*
X78504772Y-82450411D01*
X78515268Y-82444412D01*
X78529093Y-82439833D01*
X78548998Y-82436481D01*
X78577732Y-82434167D01*
X78618045Y-82432699D01*
X78672687Y-82431887D01*
X78744407Y-82431540D01*
X78835956Y-82431466D01*
X78894486Y-82431489D01*
G36*
X78894486Y-82431489D02*
G01*
X78973573Y-82431708D01*
X79034516Y-82432317D01*
X79080062Y-82433508D01*
X79112963Y-82435471D01*
X79135968Y-82438397D01*
X79151826Y-82442477D01*
X79163286Y-82447903D01*
X79173100Y-82454864D01*
X79197493Y-82485292D01*
X79200372Y-82520235D01*
X79181282Y-82557216D01*
X79177807Y-82561400D01*
X79169279Y-82569576D01*
X79157728Y-82575636D01*
X79139896Y-82580019D01*
X79112524Y-82583161D01*
X79072354Y-82585498D01*
X79016128Y-82587469D01*
X78940589Y-82589511D01*
X78721458Y-82595155D01*
X78962099Y-82860444D01*
X79028875Y-82934278D01*
X79086991Y-82999458D01*
X79131949Y-83051652D01*
X79164871Y-83092727D01*
X79186879Y-83124545D01*
X79199094Y-83148974D01*
X79202639Y-83167876D01*
X79198636Y-83183117D01*
X79188207Y-83196561D01*
X79172474Y-83210073D01*
X79163991Y-83216318D01*
X79153413Y-83221950D01*
X79139255Y-83226161D01*
X79118803Y-83229113D01*
X79089342Y-83230968D01*
X79048161Y-83231887D01*
X78992544Y-83232032D01*
X78919779Y-83231565D01*
X78827151Y-83230648D01*
X78512199Y-83227333D01*
X78490633Y-83200682D01*
X78474441Y-83174617D01*
X78471670Y-83141759D01*
X78490623Y-83107228D01*
X78494208Y-83102916D01*
X78502737Y-83094784D01*
X78514329Y-83088755D01*
X78532235Y-83084394D01*
X78559706Y-83081266D01*
X78599994Y-83078937D01*
X78656351Y-83076971D01*
X78732029Y-83074933D01*
X78951878Y-83069289D01*
X78788084Y-82888666D01*
X78709451Y-82801928D01*
X78641058Y-82726157D01*
X78585708Y-82664020D01*
X78542338Y-82613922D01*
X78509881Y-82574265D01*
X78487273Y-82543452D01*
X78473448Y-82519886D01*
X78467343Y-82501970D01*
X78467892Y-82488107D01*
X78474029Y-82476699D01*
X78484691Y-82466150D01*
X78498811Y-82454864D01*
X78504772Y-82450411D01*
X78515268Y-82444412D01*
X78529093Y-82439833D01*
X78548998Y-82436481D01*
X78577732Y-82434167D01*
X78618045Y-82432699D01*
X78672687Y-82431887D01*
X78744407Y-82431540D01*
X78835956Y-82431466D01*
X78894486Y-82431489D01*
G37*
X78854259Y-81247702D02*
X78905592Y-81260643D01*
X78962118Y-81283806D01*
X79016035Y-81313698D01*
X79059539Y-81346827D01*
X79069887Y-81357023D01*
X79121662Y-81424108D01*
X79161554Y-81504234D01*
X79185956Y-81590444D01*
X79194068Y-81645408D01*
X79200673Y-81738861D01*
X79198586Y-81828642D01*
X79188340Y-81911131D01*
X79170470Y-81982714D01*
X79145508Y-82039772D01*
X79113988Y-82078689D01*
X79112012Y-82080064D01*
X79086786Y-82087152D01*
X79039535Y-82091391D01*
X78970071Y-82092800D01*
X78907838Y-82091940D01*
X78860456Y-82087220D01*
X78828353Y-82075530D01*
X78808800Y-82053761D01*
X78799070Y-82018802D01*
X78796433Y-81967544D01*
X78798161Y-81896877D01*
X78801173Y-81848257D01*
X78809366Y-81798061D01*
X78823419Y-81765567D01*
X78844654Y-81748108D01*
X78874394Y-81743017D01*
X78878936Y-81743123D01*
X78913730Y-81751825D01*
X78937147Y-81775835D01*
X78950347Y-81817100D01*
X78954489Y-81877569D01*
X78954489Y-81946044D01*
X78992841Y-81946044D01*
X79001976Y-81945994D01*
X79019227Y-81943773D01*
X79029521Y-81934506D01*
X79036459Y-81913125D01*
X79043641Y-81874564D01*
X79044575Y-81869090D01*
X79054478Y-81772140D01*
X79051559Y-81682148D01*
X79036829Y-81601240D01*
X79011299Y-81531541D01*
X78975978Y-81475176D01*
X78931879Y-81434271D01*
X78880012Y-81410949D01*
X78821388Y-81407337D01*
X78792494Y-81412855D01*
X78736604Y-81439539D01*
X78690945Y-81485727D01*
X78656108Y-81550709D01*
X78632690Y-81633771D01*
X78628241Y-81658445D01*
X78617742Y-81747774D01*
X78618971Y-81827581D01*
X78631906Y-81905674D01*
X78638696Y-81940817D01*
X78639713Y-81986255D01*
X78627182Y-82017570D01*
X78600395Y-82037723D01*
X78572148Y-82044107D01*
X78540924Y-82034621D01*
X78527499Y-82025292D01*
X78503967Y-81991057D01*
X78486095Y-81938435D01*
X78474599Y-81869919D01*
X78470192Y-81788000D01*
X78474179Y-81690850D01*
X78490494Y-81584843D01*
X78518545Y-81491031D01*
X78557452Y-81412235D01*
X78606334Y-81351281D01*
X78639195Y-81325211D01*
X78688394Y-81295703D01*
X78742252Y-81270432D01*
X78793419Y-81252782D01*
X78834544Y-81246142D01*
X78854259Y-81247702D01*
G36*
X78854259Y-81247702D02*
G01*
X78905592Y-81260643D01*
X78962118Y-81283806D01*
X79016035Y-81313698D01*
X79059539Y-81346827D01*
X79069887Y-81357023D01*
X79121662Y-81424108D01*
X79161554Y-81504234D01*
X79185956Y-81590444D01*
X79194068Y-81645408D01*
X79200673Y-81738861D01*
X79198586Y-81828642D01*
X79188340Y-81911131D01*
X79170470Y-81982714D01*
X79145508Y-82039772D01*
X79113988Y-82078689D01*
X79112012Y-82080064D01*
X79086786Y-82087152D01*
X79039535Y-82091391D01*
X78970071Y-82092800D01*
X78907838Y-82091940D01*
X78860456Y-82087220D01*
X78828353Y-82075530D01*
X78808800Y-82053761D01*
X78799070Y-82018802D01*
X78796433Y-81967544D01*
X78798161Y-81896877D01*
X78801173Y-81848257D01*
X78809366Y-81798061D01*
X78823419Y-81765567D01*
X78844654Y-81748108D01*
X78874394Y-81743017D01*
X78878936Y-81743123D01*
X78913730Y-81751825D01*
X78937147Y-81775835D01*
X78950347Y-81817100D01*
X78954489Y-81877569D01*
X78954489Y-81946044D01*
X78992841Y-81946044D01*
X79001976Y-81945994D01*
X79019227Y-81943773D01*
X79029521Y-81934506D01*
X79036459Y-81913125D01*
X79043641Y-81874564D01*
X79044575Y-81869090D01*
X79054478Y-81772140D01*
X79051559Y-81682148D01*
X79036829Y-81601240D01*
X79011299Y-81531541D01*
X78975978Y-81475176D01*
X78931879Y-81434271D01*
X78880012Y-81410949D01*
X78821388Y-81407337D01*
X78792494Y-81412855D01*
X78736604Y-81439539D01*
X78690945Y-81485727D01*
X78656108Y-81550709D01*
X78632690Y-81633771D01*
X78628241Y-81658445D01*
X78617742Y-81747774D01*
X78618971Y-81827581D01*
X78631906Y-81905674D01*
X78638696Y-81940817D01*
X78639713Y-81986255D01*
X78627182Y-82017570D01*
X78600395Y-82037723D01*
X78572148Y-82044107D01*
X78540924Y-82034621D01*
X78527499Y-82025292D01*
X78503967Y-81991057D01*
X78486095Y-81938435D01*
X78474599Y-81869919D01*
X78470192Y-81788000D01*
X78474179Y-81690850D01*
X78490494Y-81584843D01*
X78518545Y-81491031D01*
X78557452Y-81412235D01*
X78606334Y-81351281D01*
X78639195Y-81325211D01*
X78688394Y-81295703D01*
X78742252Y-81270432D01*
X78793419Y-81252782D01*
X78834544Y-81246142D01*
X78854259Y-81247702D01*
G37*
X78906911Y-83616829D02*
X78985228Y-83617061D01*
X79045496Y-83617681D01*
X79090393Y-83618874D01*
X79122602Y-83620821D01*
X79144800Y-83623706D01*
X79159669Y-83627712D01*
X79169889Y-83633021D01*
X79178138Y-83639817D01*
X79182795Y-83644332D01*
X79189282Y-83652562D01*
X79194194Y-83663922D01*
X79197749Y-83681190D01*
X79200167Y-83707145D01*
X79201667Y-83744564D01*
X79202467Y-83796227D01*
X79202787Y-83864911D01*
X79202845Y-83953394D01*
X79202838Y-83973069D01*
X79202572Y-84060094D01*
X79201806Y-84127746D01*
X79200392Y-84178701D01*
X79198180Y-84215633D01*
X79195022Y-84241217D01*
X79190769Y-84258129D01*
X79185271Y-84269043D01*
X79175285Y-84279536D01*
X79144168Y-84292797D01*
X79108280Y-84291614D01*
X79076733Y-84275450D01*
X79074457Y-84273261D01*
X79068189Y-84264573D01*
X79063523Y-84251231D01*
X79060227Y-84230248D01*
X79058068Y-84198637D01*
X79056814Y-84153410D01*
X79056231Y-84091580D01*
X79056089Y-84010161D01*
X79056089Y-83763555D01*
X78898045Y-83763555D01*
X78898045Y-83925994D01*
X78897964Y-83961662D01*
X78897167Y-84017432D01*
X78895162Y-84056570D01*
X78891521Y-84083024D01*
X78885812Y-84100741D01*
X78877607Y-84113671D01*
X78874423Y-84117314D01*
X78843448Y-84135722D01*
X78807112Y-84136356D01*
X78773493Y-84118817D01*
X78773424Y-84118755D01*
X78764798Y-84109084D01*
X78758742Y-84095791D01*
X78754811Y-84075083D01*
X78752556Y-84043172D01*
X78751531Y-83996266D01*
X78751289Y-83930576D01*
X78751289Y-83762429D01*
X78686378Y-83765814D01*
X78621467Y-83769200D01*
X78618414Y-84011277D01*
X78618086Y-84036293D01*
X78616606Y-84117913D01*
X78614222Y-84180232D01*
X78610227Y-84225846D01*
X78603913Y-84257348D01*
X78594574Y-84277333D01*
X78581503Y-84288396D01*
X78563992Y-84293131D01*
X78541335Y-84294133D01*
X78538970Y-84294127D01*
X78518939Y-84292973D01*
X78503146Y-84288176D01*
X78491090Y-84277368D01*
X78482267Y-84258183D01*
X78476175Y-84228255D01*
X78472311Y-84185217D01*
X78470174Y-84126701D01*
X78469260Y-84050343D01*
X78469067Y-83953774D01*
X78469067Y-83663594D01*
X78498811Y-83640197D01*
X78505495Y-83635248D01*
X78516066Y-83629404D01*
X78530153Y-83624943D01*
X78550478Y-83621679D01*
X78579765Y-83619426D01*
X78620737Y-83617998D01*
X78676117Y-83617208D01*
X78748628Y-83616871D01*
X78840994Y-83616800D01*
X78906911Y-83616829D01*
G36*
X78906911Y-83616829D02*
G01*
X78985228Y-83617061D01*
X79045496Y-83617681D01*
X79090393Y-83618874D01*
X79122602Y-83620821D01*
X79144800Y-83623706D01*
X79159669Y-83627712D01*
X79169889Y-83633021D01*
X79178138Y-83639817D01*
X79182795Y-83644332D01*
X79189282Y-83652562D01*
X79194194Y-83663922D01*
X79197749Y-83681190D01*
X79200167Y-83707145D01*
X79201667Y-83744564D01*
X79202467Y-83796227D01*
X79202787Y-83864911D01*
X79202845Y-83953394D01*
X79202838Y-83973069D01*
X79202572Y-84060094D01*
X79201806Y-84127746D01*
X79200392Y-84178701D01*
X79198180Y-84215633D01*
X79195022Y-84241217D01*
X79190769Y-84258129D01*
X79185271Y-84269043D01*
X79175285Y-84279536D01*
X79144168Y-84292797D01*
X79108280Y-84291614D01*
X79076733Y-84275450D01*
X79074457Y-84273261D01*
X79068189Y-84264573D01*
X79063523Y-84251231D01*
X79060227Y-84230248D01*
X79058068Y-84198637D01*
X79056814Y-84153410D01*
X79056231Y-84091580D01*
X79056089Y-84010161D01*
X79056089Y-83763555D01*
X78898045Y-83763555D01*
X78898045Y-83925994D01*
X78897964Y-83961662D01*
X78897167Y-84017432D01*
X78895162Y-84056570D01*
X78891521Y-84083024D01*
X78885812Y-84100741D01*
X78877607Y-84113671D01*
X78874423Y-84117314D01*
X78843448Y-84135722D01*
X78807112Y-84136356D01*
X78773493Y-84118817D01*
X78773424Y-84118755D01*
X78764798Y-84109084D01*
X78758742Y-84095791D01*
X78754811Y-84075083D01*
X78752556Y-84043172D01*
X78751531Y-83996266D01*
X78751289Y-83930576D01*
X78751289Y-83762429D01*
X78686378Y-83765814D01*
X78621467Y-83769200D01*
X78618414Y-84011277D01*
X78618086Y-84036293D01*
X78616606Y-84117913D01*
X78614222Y-84180232D01*
X78610227Y-84225846D01*
X78603913Y-84257348D01*
X78594574Y-84277333D01*
X78581503Y-84288396D01*
X78563992Y-84293131D01*
X78541335Y-84294133D01*
X78538970Y-84294127D01*
X78518939Y-84292973D01*
X78503146Y-84288176D01*
X78491090Y-84277368D01*
X78482267Y-84258183D01*
X78476175Y-84228255D01*
X78472311Y-84185217D01*
X78470174Y-84126701D01*
X78469260Y-84050343D01*
X78469067Y-83953774D01*
X78469067Y-83663594D01*
X78498811Y-83640197D01*
X78505495Y-83635248D01*
X78516066Y-83629404D01*
X78530153Y-83624943D01*
X78550478Y-83621679D01*
X78579765Y-83619426D01*
X78620737Y-83617998D01*
X78676117Y-83617208D01*
X78748628Y-83616871D01*
X78840994Y-83616800D01*
X78906911Y-83616829D01*
G37*
X78910713Y-78672303D02*
X78988889Y-78672552D01*
X79049103Y-78673188D01*
X79093982Y-78674385D01*
X79126152Y-78676316D01*
X79148239Y-78679154D01*
X79162870Y-78683073D01*
X79172670Y-78688245D01*
X79180267Y-78694844D01*
X79183444Y-78698178D01*
X79189554Y-78706700D01*
X79194229Y-78718702D01*
X79197659Y-78736913D01*
X79200036Y-78764060D01*
X79201552Y-78802871D01*
X79202398Y-78856076D01*
X79202765Y-78926402D01*
X79202845Y-79016578D01*
X79202833Y-79058686D01*
X79202651Y-79139833D01*
X79202098Y-79202325D01*
X79200982Y-79248891D01*
X79199113Y-79282259D01*
X79196298Y-79305156D01*
X79192346Y-79320312D01*
X79187066Y-79330454D01*
X79180267Y-79338311D01*
X79158667Y-79353037D01*
X79129467Y-79360889D01*
X79105560Y-79355390D01*
X79078667Y-79338311D01*
X79074059Y-79333332D01*
X79067772Y-79323557D01*
X79063146Y-79309441D01*
X79059930Y-79287946D01*
X79057870Y-79256032D01*
X79056712Y-79210658D01*
X79056202Y-79148787D01*
X79056089Y-79067378D01*
X79056089Y-78819022D01*
X78898045Y-78819022D01*
X78898045Y-78980199D01*
X78897899Y-79016017D01*
X78896176Y-79081641D01*
X78891741Y-79128882D01*
X78883637Y-79160617D01*
X78870906Y-79179723D01*
X78852592Y-79189077D01*
X78827738Y-79191555D01*
X78807482Y-79190758D01*
X78785656Y-79185506D01*
X78770304Y-79172712D01*
X78760309Y-79149372D01*
X78754553Y-79112483D01*
X78751919Y-79059041D01*
X78751289Y-78986042D01*
X78751289Y-78817895D01*
X78686378Y-78821281D01*
X78621467Y-78824666D01*
X78618418Y-79072383D01*
X78617539Y-79134974D01*
X78616095Y-79203435D01*
X78614164Y-79254339D01*
X78611514Y-79290592D01*
X78607910Y-79315099D01*
X78603121Y-79330765D01*
X78596913Y-79340494D01*
X78590510Y-79346509D01*
X78558828Y-79359518D01*
X78523142Y-79355957D01*
X78492084Y-79336182D01*
X78489161Y-79332931D01*
X78482810Y-79323951D01*
X78477957Y-79311847D01*
X78474403Y-79293841D01*
X78471946Y-79267153D01*
X78470385Y-79229003D01*
X78469518Y-79176614D01*
X78469146Y-79107206D01*
X78469067Y-79017999D01*
X78469083Y-78963266D01*
X78469275Y-78886169D01*
X78469860Y-78827223D01*
X78471051Y-78783636D01*
X78473064Y-78752617D01*
X78476112Y-78731375D01*
X78480409Y-78717118D01*
X78486172Y-78707055D01*
X78493612Y-78698394D01*
X78495293Y-78696609D01*
X78502832Y-78689365D01*
X78511850Y-78683723D01*
X78524984Y-78679483D01*
X78544872Y-78676444D01*
X78574151Y-78674406D01*
X78615458Y-78673170D01*
X78671431Y-78672535D01*
X78744707Y-78672300D01*
X78837923Y-78672266D01*
X78910713Y-78672303D01*
G36*
X78910713Y-78672303D02*
G01*
X78988889Y-78672552D01*
X79049103Y-78673188D01*
X79093982Y-78674385D01*
X79126152Y-78676316D01*
X79148239Y-78679154D01*
X79162870Y-78683073D01*
X79172670Y-78688245D01*
X79180267Y-78694844D01*
X79183444Y-78698178D01*
X79189554Y-78706700D01*
X79194229Y-78718702D01*
X79197659Y-78736913D01*
X79200036Y-78764060D01*
X79201552Y-78802871D01*
X79202398Y-78856076D01*
X79202765Y-78926402D01*
X79202845Y-79016578D01*
X79202833Y-79058686D01*
X79202651Y-79139833D01*
X79202098Y-79202325D01*
X79200982Y-79248891D01*
X79199113Y-79282259D01*
X79196298Y-79305156D01*
X79192346Y-79320312D01*
X79187066Y-79330454D01*
X79180267Y-79338311D01*
X79158667Y-79353037D01*
X79129467Y-79360889D01*
X79105560Y-79355390D01*
X79078667Y-79338311D01*
X79074059Y-79333332D01*
X79067772Y-79323557D01*
X79063146Y-79309441D01*
X79059930Y-79287946D01*
X79057870Y-79256032D01*
X79056712Y-79210658D01*
X79056202Y-79148787D01*
X79056089Y-79067378D01*
X79056089Y-78819022D01*
X78898045Y-78819022D01*
X78898045Y-78980199D01*
X78897899Y-79016017D01*
X78896176Y-79081641D01*
X78891741Y-79128882D01*
X78883637Y-79160617D01*
X78870906Y-79179723D01*
X78852592Y-79189077D01*
X78827738Y-79191555D01*
X78807482Y-79190758D01*
X78785656Y-79185506D01*
X78770304Y-79172712D01*
X78760309Y-79149372D01*
X78754553Y-79112483D01*
X78751919Y-79059041D01*
X78751289Y-78986042D01*
X78751289Y-78817895D01*
X78686378Y-78821281D01*
X78621467Y-78824666D01*
X78618418Y-79072383D01*
X78617539Y-79134974D01*
X78616095Y-79203435D01*
X78614164Y-79254339D01*
X78611514Y-79290592D01*
X78607910Y-79315099D01*
X78603121Y-79330765D01*
X78596913Y-79340494D01*
X78590510Y-79346509D01*
X78558828Y-79359518D01*
X78523142Y-79355957D01*
X78492084Y-79336182D01*
X78489161Y-79332931D01*
X78482810Y-79323951D01*
X78477957Y-79311847D01*
X78474403Y-79293841D01*
X78471946Y-79267153D01*
X78470385Y-79229003D01*
X78469518Y-79176614D01*
X78469146Y-79107206D01*
X78469067Y-79017999D01*
X78469083Y-78963266D01*
X78469275Y-78886169D01*
X78469860Y-78827223D01*
X78471051Y-78783636D01*
X78473064Y-78752617D01*
X78476112Y-78731375D01*
X78480409Y-78717118D01*
X78486172Y-78707055D01*
X78493612Y-78698394D01*
X78495293Y-78696609D01*
X78502832Y-78689365D01*
X78511850Y-78683723D01*
X78524984Y-78679483D01*
X78544872Y-78676444D01*
X78574151Y-78674406D01*
X78615458Y-78673170D01*
X78671431Y-78672535D01*
X78744707Y-78672300D01*
X78837923Y-78672266D01*
X78910713Y-78672303D01*
G37*
X78551915Y-86524772D02*
X78586481Y-86537636D01*
X78634826Y-86557395D01*
X78693825Y-86582619D01*
X78760355Y-86611881D01*
X78831291Y-86643750D01*
X78903507Y-86676799D01*
X78973880Y-86709599D01*
X79039285Y-86740720D01*
X79096597Y-86768735D01*
X79142692Y-86792214D01*
X79174446Y-86809728D01*
X79188733Y-86819849D01*
X79202102Y-86854257D01*
X79195741Y-86895954D01*
X79191044Y-86901319D01*
X79168893Y-86917148D01*
X79132132Y-86939350D01*
X79084415Y-86965767D01*
X79029393Y-86994240D01*
X78870150Y-87074014D01*
X79016742Y-87147201D01*
X79036032Y-87156897D01*
X79088380Y-87183875D01*
X79133170Y-87207904D01*
X79166154Y-87226668D01*
X79183089Y-87237854D01*
X79184332Y-87239000D01*
X79199619Y-87267121D01*
X79201302Y-87302183D01*
X79188733Y-87333224D01*
X79185884Y-87335650D01*
X79165259Y-87347910D01*
X79127708Y-87367648D01*
X79075880Y-87393552D01*
X79012423Y-87424315D01*
X78939985Y-87458625D01*
X78861216Y-87495175D01*
X78817093Y-87515415D01*
X78736365Y-87552188D01*
X78672687Y-87580645D01*
X78623752Y-87601669D01*
X78587257Y-87616146D01*
X78560895Y-87624961D01*
X78542361Y-87628996D01*
X78529352Y-87629138D01*
X78519561Y-87626270D01*
X78498678Y-87611613D01*
X78478377Y-87585010D01*
X78478035Y-87584255D01*
X78471034Y-87564665D01*
X78470504Y-87547210D01*
X78478478Y-87530298D01*
X78496989Y-87512337D01*
X78528071Y-87491737D01*
X78573756Y-87466905D01*
X78636078Y-87436250D01*
X78717071Y-87398180D01*
X78748454Y-87383546D01*
X78811638Y-87353797D01*
X78866244Y-87327703D01*
X78909290Y-87306708D01*
X78937793Y-87292261D01*
X78948770Y-87285809D01*
X78948189Y-87284450D01*
X78934242Y-87274458D01*
X78904704Y-87257167D01*
X78863087Y-87234570D01*
X78812903Y-87208662D01*
X78781414Y-87192689D01*
X78726061Y-87163739D01*
X78687044Y-87141251D01*
X78661566Y-87123035D01*
X78646831Y-87106904D01*
X78640042Y-87090670D01*
X78638400Y-87072143D01*
X78638875Y-87061640D01*
X78643082Y-87045524D01*
X78653946Y-87030210D01*
X78674219Y-87013612D01*
X78706654Y-86993643D01*
X78754004Y-86968217D01*
X78819022Y-86935248D01*
X78838277Y-86925515D01*
X78884946Y-86901057D01*
X78921109Y-86880822D01*
X78943497Y-86866689D01*
X78948845Y-86860540D01*
X78945573Y-86859173D01*
X78924664Y-86849798D01*
X78887725Y-86832938D01*
X78837874Y-86810021D01*
X78778226Y-86782480D01*
X78711898Y-86751745D01*
X78654677Y-86725030D01*
X78592688Y-86695407D01*
X78546949Y-86672336D01*
X78514908Y-86654357D01*
X78494014Y-86640010D01*
X78481718Y-86627834D01*
X78475466Y-86616368D01*
X78472574Y-86606958D01*
X78472425Y-86581853D01*
X78487768Y-86554710D01*
X78488753Y-86553410D01*
X78511388Y-86531326D01*
X78533613Y-86520277D01*
X78534253Y-86520231D01*
X78551915Y-86524772D01*
G36*
X78551915Y-86524772D02*
G01*
X78586481Y-86537636D01*
X78634826Y-86557395D01*
X78693825Y-86582619D01*
X78760355Y-86611881D01*
X78831291Y-86643750D01*
X78903507Y-86676799D01*
X78973880Y-86709599D01*
X79039285Y-86740720D01*
X79096597Y-86768735D01*
X79142692Y-86792214D01*
X79174446Y-86809728D01*
X79188733Y-86819849D01*
X79202102Y-86854257D01*
X79195741Y-86895954D01*
X79191044Y-86901319D01*
X79168893Y-86917148D01*
X79132132Y-86939350D01*
X79084415Y-86965767D01*
X79029393Y-86994240D01*
X78870150Y-87074014D01*
X79016742Y-87147201D01*
X79036032Y-87156897D01*
X79088380Y-87183875D01*
X79133170Y-87207904D01*
X79166154Y-87226668D01*
X79183089Y-87237854D01*
X79184332Y-87239000D01*
X79199619Y-87267121D01*
X79201302Y-87302183D01*
X79188733Y-87333224D01*
X79185884Y-87335650D01*
X79165259Y-87347910D01*
X79127708Y-87367648D01*
X79075880Y-87393552D01*
X79012423Y-87424315D01*
X78939985Y-87458625D01*
X78861216Y-87495175D01*
X78817093Y-87515415D01*
X78736365Y-87552188D01*
X78672687Y-87580645D01*
X78623752Y-87601669D01*
X78587257Y-87616146D01*
X78560895Y-87624961D01*
X78542361Y-87628996D01*
X78529352Y-87629138D01*
X78519561Y-87626270D01*
X78498678Y-87611613D01*
X78478377Y-87585010D01*
X78478035Y-87584255D01*
X78471034Y-87564665D01*
X78470504Y-87547210D01*
X78478478Y-87530298D01*
X78496989Y-87512337D01*
X78528071Y-87491737D01*
X78573756Y-87466905D01*
X78636078Y-87436250D01*
X78717071Y-87398180D01*
X78748454Y-87383546D01*
X78811638Y-87353797D01*
X78866244Y-87327703D01*
X78909290Y-87306708D01*
X78937793Y-87292261D01*
X78948770Y-87285809D01*
X78948189Y-87284450D01*
X78934242Y-87274458D01*
X78904704Y-87257167D01*
X78863087Y-87234570D01*
X78812903Y-87208662D01*
X78781414Y-87192689D01*
X78726061Y-87163739D01*
X78687044Y-87141251D01*
X78661566Y-87123035D01*
X78646831Y-87106904D01*
X78640042Y-87090670D01*
X78638400Y-87072143D01*
X78638875Y-87061640D01*
X78643082Y-87045524D01*
X78653946Y-87030210D01*
X78674219Y-87013612D01*
X78706654Y-86993643D01*
X78754004Y-86968217D01*
X78819022Y-86935248D01*
X78838277Y-86925515D01*
X78884946Y-86901057D01*
X78921109Y-86880822D01*
X78943497Y-86866689D01*
X78948845Y-86860540D01*
X78945573Y-86859173D01*
X78924664Y-86849798D01*
X78887725Y-86832938D01*
X78837874Y-86810021D01*
X78778226Y-86782480D01*
X78711898Y-86751745D01*
X78654677Y-86725030D01*
X78592688Y-86695407D01*
X78546949Y-86672336D01*
X78514908Y-86654357D01*
X78494014Y-86640010D01*
X78481718Y-86627834D01*
X78475466Y-86616368D01*
X78472574Y-86606958D01*
X78472425Y-86581853D01*
X78487768Y-86554710D01*
X78488753Y-86553410D01*
X78511388Y-86531326D01*
X78533613Y-86520277D01*
X78534253Y-86520231D01*
X78551915Y-86524772D01*
G37*
X78720232Y-79644048D02*
X78745029Y-79649840D01*
X78766699Y-79664647D01*
X78794049Y-79692620D01*
X78801378Y-79700598D01*
X78822281Y-79724308D01*
X78839251Y-79746702D01*
X78853205Y-79770735D01*
X78865056Y-79799363D01*
X78875720Y-79835540D01*
X78886111Y-79882220D01*
X78897146Y-79942359D01*
X78909738Y-80018910D01*
X78924804Y-80114829D01*
X78927838Y-80133192D01*
X78941458Y-80195522D01*
X78957192Y-80240740D01*
X78974263Y-80267024D01*
X78991897Y-80272553D01*
X78996168Y-80269932D01*
X79011233Y-80252000D01*
X79027867Y-80223874D01*
X79033857Y-80211074D01*
X79041050Y-80189776D01*
X79045827Y-80163390D01*
X79048646Y-80127546D01*
X79049964Y-80077872D01*
X79050237Y-80010000D01*
X79050164Y-79992215D01*
X79049053Y-79924594D01*
X79046828Y-79859655D01*
X79043762Y-79804030D01*
X79040127Y-79764349D01*
X79036059Y-79728838D01*
X79035276Y-79699585D01*
X79039876Y-79680685D01*
X79050551Y-79665571D01*
X79054144Y-79661915D01*
X79085918Y-79645573D01*
X79121572Y-79646893D01*
X79152190Y-79665850D01*
X79163796Y-79686220D01*
X79176491Y-79722204D01*
X79186541Y-79764628D01*
X79187140Y-79768078D01*
X79192356Y-79810748D01*
X79196730Y-79868134D01*
X79199818Y-79933151D01*
X79201177Y-79998711D01*
X79201218Y-80014943D01*
X79198741Y-80113256D01*
X79190735Y-80193308D01*
X79176203Y-80258487D01*
X79154149Y-80312183D01*
X79123576Y-80357784D01*
X79083486Y-80398677D01*
X79057259Y-80418798D01*
X79027712Y-80430424D01*
X78987995Y-80433333D01*
X78976026Y-80433192D01*
X78943345Y-80429319D01*
X78916819Y-80416935D01*
X78885971Y-80391770D01*
X78863831Y-80370558D01*
X78841285Y-80344162D01*
X78822917Y-80314445D01*
X78807661Y-80278215D01*
X78794449Y-80232283D01*
X78782214Y-80173456D01*
X78769889Y-80098544D01*
X78756406Y-80004355D01*
X78749396Y-79959043D01*
X78734837Y-79891089D01*
X78718337Y-79841953D01*
X78700439Y-79812386D01*
X78681685Y-79803136D01*
X78662615Y-79814952D01*
X78643771Y-79848584D01*
X78642557Y-79851630D01*
X78630479Y-79897989D01*
X78622279Y-79960639D01*
X78618119Y-80034073D01*
X78618161Y-80112783D01*
X78622569Y-80191261D01*
X78631505Y-80264000D01*
X78632154Y-80267927D01*
X78639861Y-80316743D01*
X78643473Y-80348995D01*
X78642876Y-80369992D01*
X78637954Y-80385046D01*
X78628596Y-80399466D01*
X78627725Y-80400636D01*
X78597351Y-80425153D01*
X78561850Y-80429946D01*
X78527269Y-80414140D01*
X78522813Y-80409594D01*
X78507673Y-80379980D01*
X78494550Y-80332998D01*
X78483750Y-80272694D01*
X78475581Y-80203112D01*
X78470351Y-80128297D01*
X78468367Y-80052294D01*
X78469936Y-79979147D01*
X78475366Y-79912900D01*
X78484964Y-79857600D01*
X78499825Y-79806717D01*
X78532958Y-79735405D01*
X78575640Y-79684248D01*
X78627705Y-79653425D01*
X78688983Y-79643111D01*
X78720232Y-79644048D01*
G36*
X78720232Y-79644048D02*
G01*
X78745029Y-79649840D01*
X78766699Y-79664647D01*
X78794049Y-79692620D01*
X78801378Y-79700598D01*
X78822281Y-79724308D01*
X78839251Y-79746702D01*
X78853205Y-79770735D01*
X78865056Y-79799363D01*
X78875720Y-79835540D01*
X78886111Y-79882220D01*
X78897146Y-79942359D01*
X78909738Y-80018910D01*
X78924804Y-80114829D01*
X78927838Y-80133192D01*
X78941458Y-80195522D01*
X78957192Y-80240740D01*
X78974263Y-80267024D01*
X78991897Y-80272553D01*
X78996168Y-80269932D01*
X79011233Y-80252000D01*
X79027867Y-80223874D01*
X79033857Y-80211074D01*
X79041050Y-80189776D01*
X79045827Y-80163390D01*
X79048646Y-80127546D01*
X79049964Y-80077872D01*
X79050237Y-80010000D01*
X79050164Y-79992215D01*
X79049053Y-79924594D01*
X79046828Y-79859655D01*
X79043762Y-79804030D01*
X79040127Y-79764349D01*
X79036059Y-79728838D01*
X79035276Y-79699585D01*
X79039876Y-79680685D01*
X79050551Y-79665571D01*
X79054144Y-79661915D01*
X79085918Y-79645573D01*
X79121572Y-79646893D01*
X79152190Y-79665850D01*
X79163796Y-79686220D01*
X79176491Y-79722204D01*
X79186541Y-79764628D01*
X79187140Y-79768078D01*
X79192356Y-79810748D01*
X79196730Y-79868134D01*
X79199818Y-79933151D01*
X79201177Y-79998711D01*
X79201218Y-80014943D01*
X79198741Y-80113256D01*
X79190735Y-80193308D01*
X79176203Y-80258487D01*
X79154149Y-80312183D01*
X79123576Y-80357784D01*
X79083486Y-80398677D01*
X79057259Y-80418798D01*
X79027712Y-80430424D01*
X78987995Y-80433333D01*
X78976026Y-80433192D01*
X78943345Y-80429319D01*
X78916819Y-80416935D01*
X78885971Y-80391770D01*
X78863831Y-80370558D01*
X78841285Y-80344162D01*
X78822917Y-80314445D01*
X78807661Y-80278215D01*
X78794449Y-80232283D01*
X78782214Y-80173456D01*
X78769889Y-80098544D01*
X78756406Y-80004355D01*
X78749396Y-79959043D01*
X78734837Y-79891089D01*
X78718337Y-79841953D01*
X78700439Y-79812386D01*
X78681685Y-79803136D01*
X78662615Y-79814952D01*
X78643771Y-79848584D01*
X78642557Y-79851630D01*
X78630479Y-79897989D01*
X78622279Y-79960639D01*
X78618119Y-80034073D01*
X78618161Y-80112783D01*
X78622569Y-80191261D01*
X78631505Y-80264000D01*
X78632154Y-80267927D01*
X78639861Y-80316743D01*
X78643473Y-80348995D01*
X78642876Y-80369992D01*
X78637954Y-80385046D01*
X78628596Y-80399466D01*
X78627725Y-80400636D01*
X78597351Y-80425153D01*
X78561850Y-80429946D01*
X78527269Y-80414140D01*
X78522813Y-80409594D01*
X78507673Y-80379980D01*
X78494550Y-80332998D01*
X78483750Y-80272694D01*
X78475581Y-80203112D01*
X78470351Y-80128297D01*
X78468367Y-80052294D01*
X78469936Y-79979147D01*
X78475366Y-79912900D01*
X78484964Y-79857600D01*
X78499825Y-79806717D01*
X78532958Y-79735405D01*
X78575640Y-79684248D01*
X78627705Y-79653425D01*
X78688983Y-79643111D01*
X78720232Y-79644048D01*
G37*
X76021325Y-82502449D02*
X76222581Y-82519209D01*
X76417128Y-82552708D01*
X76600756Y-82602956D01*
X76718053Y-82646810D01*
X76880951Y-82724652D01*
X77034866Y-82818172D01*
X77176671Y-82925178D01*
X77303239Y-83043481D01*
X77411441Y-83170889D01*
X77464120Y-83248394D01*
X77533750Y-83375275D01*
X77592468Y-83512757D01*
X77637587Y-83654284D01*
X77666422Y-83793298D01*
X77668106Y-83807403D01*
X77671434Y-83850847D01*
X77674275Y-83908277D01*
X77676373Y-83973878D01*
X77677468Y-84041833D01*
X77675140Y-84168622D01*
X77662136Y-84316327D01*
X77637133Y-84454221D01*
X77599318Y-84587986D01*
X77590889Y-84611438D01*
X77571408Y-84659388D01*
X77546473Y-84715860D01*
X77517722Y-84777621D01*
X77486790Y-84841437D01*
X77455315Y-84904074D01*
X77424934Y-84962297D01*
X77397283Y-85012873D01*
X77373999Y-85052567D01*
X77356718Y-85078146D01*
X77347079Y-85086375D01*
X77343984Y-85084924D01*
X77324079Y-85073750D01*
X77288420Y-85052866D01*
X77239459Y-85023735D01*
X77179646Y-84987819D01*
X77111433Y-84946580D01*
X77037271Y-84901483D01*
X76740008Y-84720215D01*
X76784539Y-84673685D01*
X76862865Y-84582277D01*
X76937439Y-84468666D01*
X76991474Y-84350878D01*
X77024290Y-84230441D01*
X77035211Y-84108883D01*
X77033868Y-84067415D01*
X77015612Y-83949920D01*
X76976617Y-83839911D01*
X76917670Y-83738570D01*
X76839557Y-83647079D01*
X76743064Y-83566620D01*
X76628978Y-83498373D01*
X76594724Y-83482092D01*
X76471240Y-83436018D01*
X76332918Y-83400894D01*
X76183561Y-83376803D01*
X76026973Y-83363827D01*
X75866956Y-83362051D01*
X75707314Y-83371557D01*
X75551850Y-83392428D01*
X75404366Y-83424748D01*
X75268667Y-83468601D01*
X75182076Y-83506018D01*
X75068688Y-83570815D01*
X74975070Y-83646228D01*
X74900959Y-83732582D01*
X74846094Y-83830205D01*
X74810212Y-83939423D01*
X74793051Y-84060561D01*
X74791880Y-84129962D01*
X74806141Y-84252832D01*
X74841241Y-84368336D01*
X74896682Y-84475047D01*
X74971964Y-84571536D01*
X74986440Y-84587280D01*
X75012962Y-84617850D01*
X75030138Y-84640191D01*
X75034787Y-84650309D01*
X75032597Y-84652294D01*
X75013721Y-84666759D01*
X74980397Y-84690600D01*
X74935380Y-84721971D01*
X74881425Y-84759026D01*
X74821285Y-84799917D01*
X74757718Y-84842798D01*
X74693476Y-84885822D01*
X74631315Y-84927143D01*
X74573991Y-84964914D01*
X74524257Y-84997288D01*
X74484868Y-85022418D01*
X74458580Y-85038458D01*
X74448147Y-85043561D01*
X74443941Y-85038950D01*
X74438933Y-85019733D01*
X74436386Y-85010162D01*
X74425249Y-84982191D01*
X74406802Y-84940552D01*
X74382725Y-84889005D01*
X74354699Y-84831310D01*
X74349154Y-84820043D01*
X74269889Y-84642313D01*
X74210385Y-84472510D01*
X74170245Y-84308570D01*
X74149071Y-84148429D01*
X74146466Y-83990023D01*
X74162033Y-83831289D01*
X74179523Y-83735732D01*
X74224564Y-83571442D01*
X74287656Y-83417411D01*
X74369915Y-83271491D01*
X74472457Y-83131534D01*
X74596399Y-82995392D01*
X74641661Y-82951527D01*
X74773865Y-82839242D01*
X74911832Y-82746028D01*
X75059750Y-82669281D01*
X75221803Y-82606397D01*
X75233391Y-82602580D01*
X75419392Y-82552493D01*
X75615521Y-82519101D01*
X75817568Y-82502416D01*
X76021325Y-82502449D01*
G36*
X76021325Y-82502449D02*
G01*
X76222581Y-82519209D01*
X76417128Y-82552708D01*
X76600756Y-82602956D01*
X76718053Y-82646810D01*
X76880951Y-82724652D01*
X77034866Y-82818172D01*
X77176671Y-82925178D01*
X77303239Y-83043481D01*
X77411441Y-83170889D01*
X77464120Y-83248394D01*
X77533750Y-83375275D01*
X77592468Y-83512757D01*
X77637587Y-83654284D01*
X77666422Y-83793298D01*
X77668106Y-83807403D01*
X77671434Y-83850847D01*
X77674275Y-83908277D01*
X77676373Y-83973878D01*
X77677468Y-84041833D01*
X77675140Y-84168622D01*
X77662136Y-84316327D01*
X77637133Y-84454221D01*
X77599318Y-84587986D01*
X77590889Y-84611438D01*
X77571408Y-84659388D01*
X77546473Y-84715860D01*
X77517722Y-84777621D01*
X77486790Y-84841437D01*
X77455315Y-84904074D01*
X77424934Y-84962297D01*
X77397283Y-85012873D01*
X77373999Y-85052567D01*
X77356718Y-85078146D01*
X77347079Y-85086375D01*
X77343984Y-85084924D01*
X77324079Y-85073750D01*
X77288420Y-85052866D01*
X77239459Y-85023735D01*
X77179646Y-84987819D01*
X77111433Y-84946580D01*
X77037271Y-84901483D01*
X76740008Y-84720215D01*
X76784539Y-84673685D01*
X76862865Y-84582277D01*
X76937439Y-84468666D01*
X76991474Y-84350878D01*
X77024290Y-84230441D01*
X77035211Y-84108883D01*
X77033868Y-84067415D01*
X77015612Y-83949920D01*
X76976617Y-83839911D01*
X76917670Y-83738570D01*
X76839557Y-83647079D01*
X76743064Y-83566620D01*
X76628978Y-83498373D01*
X76594724Y-83482092D01*
X76471240Y-83436018D01*
X76332918Y-83400894D01*
X76183561Y-83376803D01*
X76026973Y-83363827D01*
X75866956Y-83362051D01*
X75707314Y-83371557D01*
X75551850Y-83392428D01*
X75404366Y-83424748D01*
X75268667Y-83468601D01*
X75182076Y-83506018D01*
X75068688Y-83570815D01*
X74975070Y-83646228D01*
X74900959Y-83732582D01*
X74846094Y-83830205D01*
X74810212Y-83939423D01*
X74793051Y-84060561D01*
X74791880Y-84129962D01*
X74806141Y-84252832D01*
X74841241Y-84368336D01*
X74896682Y-84475047D01*
X74971964Y-84571536D01*
X74986440Y-84587280D01*
X75012962Y-84617850D01*
X75030138Y-84640191D01*
X75034787Y-84650309D01*
X75032597Y-84652294D01*
X75013721Y-84666759D01*
X74980397Y-84690600D01*
X74935380Y-84721971D01*
X74881425Y-84759026D01*
X74821285Y-84799917D01*
X74757718Y-84842798D01*
X74693476Y-84885822D01*
X74631315Y-84927143D01*
X74573991Y-84964914D01*
X74524257Y-84997288D01*
X74484868Y-85022418D01*
X74458580Y-85038458D01*
X74448147Y-85043561D01*
X74443941Y-85038950D01*
X74438933Y-85019733D01*
X74436386Y-85010162D01*
X74425249Y-84982191D01*
X74406802Y-84940552D01*
X74382725Y-84889005D01*
X74354699Y-84831310D01*
X74349154Y-84820043D01*
X74269889Y-84642313D01*
X74210385Y-84472510D01*
X74170245Y-84308570D01*
X74149071Y-84148429D01*
X74146466Y-83990023D01*
X74162033Y-83831289D01*
X74179523Y-83735732D01*
X74224564Y-83571442D01*
X74287656Y-83417411D01*
X74369915Y-83271491D01*
X74472457Y-83131534D01*
X74596399Y-82995392D01*
X74641661Y-82951527D01*
X74773865Y-82839242D01*
X74911832Y-82746028D01*
X75059750Y-82669281D01*
X75221803Y-82606397D01*
X75233391Y-82602580D01*
X75419392Y-82552493D01*
X75615521Y-82519101D01*
X75817568Y-82502416D01*
X76021325Y-82502449D01*
G37*
X76520158Y-87634732D02*
X76671594Y-87643311D01*
X76808283Y-87662167D01*
X76934276Y-87692163D01*
X77053625Y-87734164D01*
X77170381Y-87789031D01*
X77281179Y-87855833D01*
X77394739Y-87946637D01*
X77490211Y-88050292D01*
X77567073Y-88166113D01*
X77624797Y-88293414D01*
X77662858Y-88431511D01*
X77668666Y-88469207D01*
X77674396Y-88548248D01*
X77674583Y-88636371D01*
X77669539Y-88725764D01*
X77659578Y-88808616D01*
X77645012Y-88877113D01*
X77635364Y-88907965D01*
X77605123Y-88985270D01*
X77567617Y-89062321D01*
X77526614Y-89131800D01*
X77485879Y-89186385D01*
X77466505Y-89209084D01*
X77448662Y-89231799D01*
X77441778Y-89243221D01*
X77443424Y-89244463D01*
X77461205Y-89247272D01*
X77494370Y-89249224D01*
X77537733Y-89249955D01*
X77633689Y-89249955D01*
X77633689Y-90108104D01*
X77572974Y-90073839D01*
X77563868Y-90068645D01*
X77549249Y-90060285D01*
X77535173Y-90052712D01*
X77520540Y-90045888D01*
X77504249Y-90039773D01*
X77485198Y-90034327D01*
X77462286Y-90029513D01*
X77434413Y-90025292D01*
X77400478Y-90021623D01*
X77359379Y-90018469D01*
X77310015Y-90015789D01*
X77251286Y-90013546D01*
X77182090Y-90011701D01*
X77101326Y-90010213D01*
X77007894Y-90009045D01*
X76900692Y-90008156D01*
X76778620Y-90007509D01*
X76640576Y-90007064D01*
X76485459Y-90006782D01*
X76312168Y-90006625D01*
X76119603Y-90006552D01*
X75906662Y-90006526D01*
X75672245Y-90006507D01*
X73987378Y-90006311D01*
X73987378Y-89100983D01*
X74024067Y-89125415D01*
X74033647Y-89131682D01*
X74079981Y-89157792D01*
X74127102Y-89175531D01*
X74182251Y-89187092D01*
X74252667Y-89194669D01*
X74259650Y-89195161D01*
X74297641Y-89196938D01*
X74351576Y-89198556D01*
X74418703Y-89200001D01*
X74496271Y-89201260D01*
X74581528Y-89202320D01*
X74671724Y-89203171D01*
X74764107Y-89203797D01*
X74855925Y-89204188D01*
X74944427Y-89204330D01*
X75026862Y-89204210D01*
X75100479Y-89203817D01*
X75162526Y-89203138D01*
X75210251Y-89202159D01*
X75240904Y-89200868D01*
X75251733Y-89199253D01*
X75247333Y-89191043D01*
X75232362Y-89169353D01*
X75210448Y-89139986D01*
X75176236Y-89091121D01*
X75129714Y-89002875D01*
X75096046Y-88904084D01*
X75093231Y-88889557D01*
X75647465Y-88889557D01*
X75659389Y-88974681D01*
X75686040Y-89058867D01*
X75726962Y-89137392D01*
X75770530Y-89204800D01*
X76920721Y-89204800D01*
X76967089Y-89134244D01*
X76990791Y-89093583D01*
X77016639Y-89039454D01*
X77034829Y-88990311D01*
X77050551Y-88926835D01*
X77061541Y-88830669D01*
X77053365Y-88746100D01*
X77025805Y-88672781D01*
X76978642Y-88610363D01*
X76911658Y-88558498D01*
X76824633Y-88516840D01*
X76717350Y-88485038D01*
X76705009Y-88482455D01*
X76643772Y-88474000D01*
X76566692Y-88468337D01*
X76479002Y-88465424D01*
X76385934Y-88465217D01*
X76292720Y-88467670D01*
X76204594Y-88472739D01*
X76126788Y-88480381D01*
X76064533Y-88490552D01*
X76058666Y-88491833D01*
X75948121Y-88520874D01*
X75857575Y-88555390D01*
X75784953Y-88596544D01*
X75728181Y-88645501D01*
X75685184Y-88703426D01*
X75669615Y-88735380D01*
X75650722Y-88808216D01*
X75647465Y-88889557D01*
X75093231Y-88889557D01*
X75074231Y-88791490D01*
X75063265Y-88661836D01*
X75062219Y-88569330D01*
X75072014Y-88447989D01*
X75096174Y-88337901D01*
X75135785Y-88234611D01*
X75191932Y-88133662D01*
X75222883Y-88088497D01*
X75314115Y-87983089D01*
X75423106Y-87891462D01*
X75549726Y-87813668D01*
X75693845Y-87749759D01*
X75855332Y-87699786D01*
X76034059Y-87663802D01*
X76229895Y-87641857D01*
X76385934Y-87636100D01*
X76442711Y-87634006D01*
X76520158Y-87634732D01*
G36*
X76520158Y-87634732D02*
G01*
X76671594Y-87643311D01*
X76808283Y-87662167D01*
X76934276Y-87692163D01*
X77053625Y-87734164D01*
X77170381Y-87789031D01*
X77281179Y-87855833D01*
X77394739Y-87946637D01*
X77490211Y-88050292D01*
X77567073Y-88166113D01*
X77624797Y-88293414D01*
X77662858Y-88431511D01*
X77668666Y-88469207D01*
X77674396Y-88548248D01*
X77674583Y-88636371D01*
X77669539Y-88725764D01*
X77659578Y-88808616D01*
X77645012Y-88877113D01*
X77635364Y-88907965D01*
X77605123Y-88985270D01*
X77567617Y-89062321D01*
X77526614Y-89131800D01*
X77485879Y-89186385D01*
X77466505Y-89209084D01*
X77448662Y-89231799D01*
X77441778Y-89243221D01*
X77443424Y-89244463D01*
X77461205Y-89247272D01*
X77494370Y-89249224D01*
X77537733Y-89249955D01*
X77633689Y-89249955D01*
X77633689Y-90108104D01*
X77572974Y-90073839D01*
X77563868Y-90068645D01*
X77549249Y-90060285D01*
X77535173Y-90052712D01*
X77520540Y-90045888D01*
X77504249Y-90039773D01*
X77485198Y-90034327D01*
X77462286Y-90029513D01*
X77434413Y-90025292D01*
X77400478Y-90021623D01*
X77359379Y-90018469D01*
X77310015Y-90015789D01*
X77251286Y-90013546D01*
X77182090Y-90011701D01*
X77101326Y-90010213D01*
X77007894Y-90009045D01*
X76900692Y-90008156D01*
X76778620Y-90007509D01*
X76640576Y-90007064D01*
X76485459Y-90006782D01*
X76312168Y-90006625D01*
X76119603Y-90006552D01*
X75906662Y-90006526D01*
X75672245Y-90006507D01*
X73987378Y-90006311D01*
X73987378Y-89100983D01*
X74024067Y-89125415D01*
X74033647Y-89131682D01*
X74079981Y-89157792D01*
X74127102Y-89175531D01*
X74182251Y-89187092D01*
X74252667Y-89194669D01*
X74259650Y-89195161D01*
X74297641Y-89196938D01*
X74351576Y-89198556D01*
X74418703Y-89200001D01*
X74496271Y-89201260D01*
X74581528Y-89202320D01*
X74671724Y-89203171D01*
X74764107Y-89203797D01*
X74855925Y-89204188D01*
X74944427Y-89204330D01*
X75026862Y-89204210D01*
X75100479Y-89203817D01*
X75162526Y-89203138D01*
X75210251Y-89202159D01*
X75240904Y-89200868D01*
X75251733Y-89199253D01*
X75247333Y-89191043D01*
X75232362Y-89169353D01*
X75210448Y-89139986D01*
X75176236Y-89091121D01*
X75129714Y-89002875D01*
X75096046Y-88904084D01*
X75093231Y-88889557D01*
X75647465Y-88889557D01*
X75659389Y-88974681D01*
X75686040Y-89058867D01*
X75726962Y-89137392D01*
X75770530Y-89204800D01*
X76920721Y-89204800D01*
X76967089Y-89134244D01*
X76990791Y-89093583D01*
X77016639Y-89039454D01*
X77034829Y-88990311D01*
X77050551Y-88926835D01*
X77061541Y-88830669D01*
X77053365Y-88746100D01*
X77025805Y-88672781D01*
X76978642Y-88610363D01*
X76911658Y-88558498D01*
X76824633Y-88516840D01*
X76717350Y-88485038D01*
X76705009Y-88482455D01*
X76643772Y-88474000D01*
X76566692Y-88468337D01*
X76479002Y-88465424D01*
X76385934Y-88465217D01*
X76292720Y-88467670D01*
X76204594Y-88472739D01*
X76126788Y-88480381D01*
X76064533Y-88490552D01*
X76058666Y-88491833D01*
X75948121Y-88520874D01*
X75857575Y-88555390D01*
X75784953Y-88596544D01*
X75728181Y-88645501D01*
X75685184Y-88703426D01*
X75669615Y-88735380D01*
X75650722Y-88808216D01*
X75647465Y-88889557D01*
X75093231Y-88889557D01*
X75074231Y-88791490D01*
X75063265Y-88661836D01*
X75062219Y-88569330D01*
X75072014Y-88447989D01*
X75096174Y-88337901D01*
X75135785Y-88234611D01*
X75191932Y-88133662D01*
X75222883Y-88088497D01*
X75314115Y-87983089D01*
X75423106Y-87891462D01*
X75549726Y-87813668D01*
X75693845Y-87749759D01*
X75855332Y-87699786D01*
X76034059Y-87663802D01*
X76229895Y-87641857D01*
X76385934Y-87636100D01*
X76442711Y-87634006D01*
X76520158Y-87634732D01*
G37*
X76877363Y-85092739D02*
X76952202Y-85096368D01*
X77014401Y-85103978D01*
X77070984Y-85116312D01*
X77197076Y-85160687D01*
X77311679Y-85223600D01*
X77412568Y-85303762D01*
X77498924Y-85400260D01*
X77569932Y-85512178D01*
X77624776Y-85638603D01*
X77662638Y-85778622D01*
X77668351Y-85814851D01*
X77674313Y-85893845D01*
X77674646Y-85982159D01*
X77669659Y-86071925D01*
X77659666Y-86155278D01*
X77644978Y-86224349D01*
X77614749Y-86310813D01*
X77560057Y-86420714D01*
X77492543Y-86518044D01*
X77441556Y-86580133D01*
X77537622Y-86583395D01*
X77633689Y-86586657D01*
X77633689Y-87009550D01*
X77633686Y-87020457D01*
X77633380Y-87114944D01*
X77632616Y-87201669D01*
X77631451Y-87278163D01*
X77629942Y-87341957D01*
X77628147Y-87390582D01*
X77626121Y-87421567D01*
X77623922Y-87432444D01*
X77623463Y-87432422D01*
X77607910Y-87425386D01*
X77585071Y-87409566D01*
X77579638Y-87405266D01*
X77565606Y-87394223D01*
X77552186Y-87384689D01*
X77537722Y-87376539D01*
X77520556Y-87369648D01*
X77499034Y-87363889D01*
X77471498Y-87359138D01*
X77436292Y-87355269D01*
X77391760Y-87352156D01*
X77336246Y-87349675D01*
X77268093Y-87347700D01*
X77185645Y-87346106D01*
X77087246Y-87344766D01*
X76971239Y-87343556D01*
X76835968Y-87342351D01*
X76679778Y-87341025D01*
X76537012Y-87339772D01*
X76391942Y-87338349D01*
X76266027Y-87336824D01*
X76157436Y-87335067D01*
X76064334Y-87332949D01*
X75984891Y-87330340D01*
X75917273Y-87327110D01*
X75859649Y-87323131D01*
X75810185Y-87318272D01*
X75767050Y-87312403D01*
X75728410Y-87305396D01*
X75692434Y-87297120D01*
X75657289Y-87287446D01*
X75621142Y-87276244D01*
X75582161Y-87263384D01*
X75539091Y-87247910D01*
X75446871Y-87205006D01*
X75367099Y-87151265D01*
X75292965Y-87082424D01*
X75229405Y-87004815D01*
X75167725Y-86900239D01*
X75120202Y-86780756D01*
X75086567Y-86645492D01*
X75066552Y-86493574D01*
X75059889Y-86324128D01*
X75060287Y-86266110D01*
X75062335Y-86200602D01*
X75066704Y-86139307D01*
X75074035Y-86077903D01*
X75084969Y-86012068D01*
X75100147Y-85937480D01*
X75120209Y-85849816D01*
X75145797Y-85744755D01*
X75152820Y-85716194D01*
X75170776Y-85640946D01*
X75186820Y-85570612D01*
X75200028Y-85509433D01*
X75209474Y-85461646D01*
X75214231Y-85431489D01*
X75217910Y-85403217D01*
X75223187Y-85376940D01*
X75227942Y-85366941D01*
X75236781Y-85370048D01*
X75264072Y-85380806D01*
X75306906Y-85398136D01*
X75362425Y-85420874D01*
X75427772Y-85447853D01*
X75500089Y-85477910D01*
X75515879Y-85484507D01*
X75606484Y-85523093D01*
X75676217Y-85554232D01*
X75725405Y-85578083D01*
X75754374Y-85594802D01*
X75763452Y-85604546D01*
X75761405Y-85612234D01*
X75751760Y-85638585D01*
X75736190Y-85677018D01*
X75716815Y-85722178D01*
X75678814Y-85816707D01*
X75637780Y-85953520D01*
X75612612Y-86094711D01*
X75608611Y-86132686D01*
X75606447Y-86235941D01*
X75619622Y-86323048D01*
X75648756Y-86394871D01*
X75694466Y-86452269D01*
X75757372Y-86496104D01*
X75838092Y-86527238D01*
X75937245Y-86546530D01*
X75996224Y-86553950D01*
X75989445Y-86392064D01*
X75989110Y-86366106D01*
X76511842Y-86366106D01*
X76511857Y-86374993D01*
X76512655Y-86430340D01*
X76514488Y-86477264D01*
X76517111Y-86511047D01*
X76520274Y-86526972D01*
X76526741Y-86531057D01*
X76548875Y-86535428D01*
X76587988Y-86538396D01*
X76645939Y-86540086D01*
X76724586Y-86540622D01*
X76920462Y-86540622D01*
X76976973Y-86495952D01*
X76992212Y-86483215D01*
X77034844Y-86436396D01*
X77070672Y-86375745D01*
X77075850Y-86365103D01*
X77092745Y-86326324D01*
X77102909Y-86291308D01*
X77108325Y-86251278D01*
X77110978Y-86197459D01*
X77111383Y-86179352D01*
X77108540Y-86103989D01*
X77096620Y-86043257D01*
X77074037Y-85991548D01*
X77039211Y-85943254D01*
X77034798Y-85938197D01*
X76979160Y-85889728D01*
X76915333Y-85861541D01*
X76840282Y-85852248D01*
X76768693Y-85859480D01*
X76705645Y-85884204D01*
X76647758Y-85928751D01*
X76600808Y-85983681D01*
X76560961Y-86056106D01*
X76533263Y-86142660D01*
X76517096Y-86245330D01*
X76511842Y-86366106D01*
X75989110Y-86366106D01*
X75987813Y-86265505D01*
X75994194Y-86114049D01*
X76008777Y-85965604D01*
X76030882Y-85829422D01*
X76045821Y-85764755D01*
X76088741Y-85632510D01*
X76145340Y-85510238D01*
X76214017Y-85400315D01*
X76293170Y-85305117D01*
X76381196Y-85227020D01*
X76476493Y-85168401D01*
X76528864Y-85144405D01*
X76599590Y-85118768D01*
X76670812Y-85102522D01*
X76749712Y-85094178D01*
X76840282Y-85092310D01*
X76843467Y-85092245D01*
X76877363Y-85092739D01*
G36*
X76877363Y-85092739D02*
G01*
X76952202Y-85096368D01*
X77014401Y-85103978D01*
X77070984Y-85116312D01*
X77197076Y-85160687D01*
X77311679Y-85223600D01*
X77412568Y-85303762D01*
X77498924Y-85400260D01*
X77569932Y-85512178D01*
X77624776Y-85638603D01*
X77662638Y-85778622D01*
X77668351Y-85814851D01*
X77674313Y-85893845D01*
X77674646Y-85982159D01*
X77669659Y-86071925D01*
X77659666Y-86155278D01*
X77644978Y-86224349D01*
X77614749Y-86310813D01*
X77560057Y-86420714D01*
X77492543Y-86518044D01*
X77441556Y-86580133D01*
X77537622Y-86583395D01*
X77633689Y-86586657D01*
X77633689Y-87009550D01*
X77633686Y-87020457D01*
X77633380Y-87114944D01*
X77632616Y-87201669D01*
X77631451Y-87278163D01*
X77629942Y-87341957D01*
X77628147Y-87390582D01*
X77626121Y-87421567D01*
X77623922Y-87432444D01*
X77623463Y-87432422D01*
X77607910Y-87425386D01*
X77585071Y-87409566D01*
X77579638Y-87405266D01*
X77565606Y-87394223D01*
X77552186Y-87384689D01*
X77537722Y-87376539D01*
X77520556Y-87369648D01*
X77499034Y-87363889D01*
X77471498Y-87359138D01*
X77436292Y-87355269D01*
X77391760Y-87352156D01*
X77336246Y-87349675D01*
X77268093Y-87347700D01*
X77185645Y-87346106D01*
X77087246Y-87344766D01*
X76971239Y-87343556D01*
X76835968Y-87342351D01*
X76679778Y-87341025D01*
X76537012Y-87339772D01*
X76391942Y-87338349D01*
X76266027Y-87336824D01*
X76157436Y-87335067D01*
X76064334Y-87332949D01*
X75984891Y-87330340D01*
X75917273Y-87327110D01*
X75859649Y-87323131D01*
X75810185Y-87318272D01*
X75767050Y-87312403D01*
X75728410Y-87305396D01*
X75692434Y-87297120D01*
X75657289Y-87287446D01*
X75621142Y-87276244D01*
X75582161Y-87263384D01*
X75539091Y-87247910D01*
X75446871Y-87205006D01*
X75367099Y-87151265D01*
X75292965Y-87082424D01*
X75229405Y-87004815D01*
X75167725Y-86900239D01*
X75120202Y-86780756D01*
X75086567Y-86645492D01*
X75066552Y-86493574D01*
X75059889Y-86324128D01*
X75060287Y-86266110D01*
X75062335Y-86200602D01*
X75066704Y-86139307D01*
X75074035Y-86077903D01*
X75084969Y-86012068D01*
X75100147Y-85937480D01*
X75120209Y-85849816D01*
X75145797Y-85744755D01*
X75152820Y-85716194D01*
X75170776Y-85640946D01*
X75186820Y-85570612D01*
X75200028Y-85509433D01*
X75209474Y-85461646D01*
X75214231Y-85431489D01*
X75217910Y-85403217D01*
X75223187Y-85376940D01*
X75227942Y-85366941D01*
X75236781Y-85370048D01*
X75264072Y-85380806D01*
X75306906Y-85398136D01*
X75362425Y-85420874D01*
X75427772Y-85447853D01*
X75500089Y-85477910D01*
X75515879Y-85484507D01*
X75606484Y-85523093D01*
X75676217Y-85554232D01*
X75725405Y-85578083D01*
X75754374Y-85594802D01*
X75763452Y-85604546D01*
X75761405Y-85612234D01*
X75751760Y-85638585D01*
X75736190Y-85677018D01*
X75716815Y-85722178D01*
X75678814Y-85816707D01*
X75637780Y-85953520D01*
X75612612Y-86094711D01*
X75608611Y-86132686D01*
X75606447Y-86235941D01*
X75619622Y-86323048D01*
X75648756Y-86394871D01*
X75694466Y-86452269D01*
X75757372Y-86496104D01*
X75838092Y-86527238D01*
X75937245Y-86546530D01*
X75996224Y-86553950D01*
X75989445Y-86392064D01*
X75989110Y-86366106D01*
X76511842Y-86366106D01*
X76511857Y-86374993D01*
X76512655Y-86430340D01*
X76514488Y-86477264D01*
X76517111Y-86511047D01*
X76520274Y-86526972D01*
X76526741Y-86531057D01*
X76548875Y-86535428D01*
X76587988Y-86538396D01*
X76645939Y-86540086D01*
X76724586Y-86540622D01*
X76920462Y-86540622D01*
X76976973Y-86495952D01*
X76992212Y-86483215D01*
X77034844Y-86436396D01*
X77070672Y-86375745D01*
X77075850Y-86365103D01*
X77092745Y-86326324D01*
X77102909Y-86291308D01*
X77108325Y-86251278D01*
X77110978Y-86197459D01*
X77111383Y-86179352D01*
X77108540Y-86103989D01*
X77096620Y-86043257D01*
X77074037Y-85991548D01*
X77039211Y-85943254D01*
X77034798Y-85938197D01*
X76979160Y-85889728D01*
X76915333Y-85861541D01*
X76840282Y-85852248D01*
X76768693Y-85859480D01*
X76705645Y-85884204D01*
X76647758Y-85928751D01*
X76600808Y-85983681D01*
X76560961Y-86056106D01*
X76533263Y-86142660D01*
X76517096Y-86245330D01*
X76511842Y-86366106D01*
X75989110Y-86366106D01*
X75987813Y-86265505D01*
X75994194Y-86114049D01*
X76008777Y-85965604D01*
X76030882Y-85829422D01*
X76045821Y-85764755D01*
X76088741Y-85632510D01*
X76145340Y-85510238D01*
X76214017Y-85400315D01*
X76293170Y-85305117D01*
X76381196Y-85227020D01*
X76476493Y-85168401D01*
X76528864Y-85144405D01*
X76599590Y-85118768D01*
X76670812Y-85102522D01*
X76749712Y-85094178D01*
X76840282Y-85092310D01*
X76843467Y-85092245D01*
X76877363Y-85092739D01*
G37*
X76821295Y-77543313D02*
X77001535Y-77543407D01*
X77164015Y-77543605D01*
X77309670Y-77543937D01*
X77439434Y-77544431D01*
X77554243Y-77545117D01*
X77655030Y-77546024D01*
X77742730Y-77547183D01*
X77818279Y-77548622D01*
X77882611Y-77550371D01*
X77936661Y-77552460D01*
X77981363Y-77554917D01*
X78017652Y-77557773D01*
X78046463Y-77561057D01*
X78068731Y-77564798D01*
X78085390Y-77569026D01*
X78097375Y-77573771D01*
X78105621Y-77579061D01*
X78111062Y-77584927D01*
X78114634Y-77591398D01*
X78117270Y-77598503D01*
X78119906Y-77606272D01*
X78123477Y-77614734D01*
X78125145Y-77619092D01*
X78127111Y-77627605D01*
X78128911Y-77640306D01*
X78130555Y-77658115D01*
X78132047Y-77681951D01*
X78133397Y-77712734D01*
X78134611Y-77751383D01*
X78135697Y-77798818D01*
X78136661Y-77855957D01*
X78137511Y-77923721D01*
X78138253Y-78003029D01*
X78138897Y-78094801D01*
X78139447Y-78199956D01*
X78139913Y-78319413D01*
X78140300Y-78454092D01*
X78140616Y-78604912D01*
X78140869Y-78772794D01*
X78141066Y-78958655D01*
X78141213Y-79163417D01*
X78141318Y-79387998D01*
X78141389Y-79633318D01*
X78141432Y-79900296D01*
X78141437Y-79938679D01*
X78141480Y-80204078D01*
X78141525Y-80447950D01*
X78141548Y-80671217D01*
X78141524Y-80874804D01*
X78141430Y-81059633D01*
X78141243Y-81226627D01*
X78140939Y-81376710D01*
X78140494Y-81510804D01*
X78139885Y-81629834D01*
X78139089Y-81734721D01*
X78138080Y-81826390D01*
X78136837Y-81905763D01*
X78135335Y-81973763D01*
X78133551Y-82031314D01*
X78131461Y-82079338D01*
X78129042Y-82118760D01*
X78126270Y-82150501D01*
X78123121Y-82175486D01*
X78119572Y-82194636D01*
X78115598Y-82208877D01*
X78111178Y-82219129D01*
X78106286Y-82226318D01*
X78100900Y-82231365D01*
X78094996Y-82235195D01*
X78088549Y-82238729D01*
X78081537Y-82242892D01*
X78079687Y-82243975D01*
X78074180Y-82246187D01*
X78065868Y-82248214D01*
X78053809Y-82250062D01*
X78037063Y-82251739D01*
X78014687Y-82253255D01*
X77985740Y-82254617D01*
X77949280Y-82255833D01*
X77904367Y-82256911D01*
X77850057Y-82257860D01*
X77785410Y-82258688D01*
X77709484Y-82259403D01*
X77621338Y-82260013D01*
X77520029Y-82260526D01*
X77404617Y-82260950D01*
X77274160Y-82261294D01*
X77127716Y-82261566D01*
X76964344Y-82261773D01*
X76783101Y-82261924D01*
X76583048Y-82262028D01*
X76363241Y-82262092D01*
X76122739Y-82262124D01*
X75860602Y-82262133D01*
X73669031Y-82262133D01*
X73630649Y-82223751D01*
X73606911Y-82196645D01*
X73595111Y-82169747D01*
X73592267Y-82133440D01*
X73592267Y-82081511D01*
X73680206Y-82081511D01*
X73730102Y-82079573D01*
X73840523Y-82060801D01*
X73941987Y-82023783D01*
X74033152Y-81970631D01*
X74112673Y-81903454D01*
X74179205Y-81824362D01*
X74231406Y-81735466D01*
X74267930Y-81638875D01*
X74287434Y-81536700D01*
X74288561Y-81432147D01*
X75104978Y-81432147D01*
X75104978Y-81877805D01*
X76281845Y-81880880D01*
X77458711Y-81883955D01*
X77517622Y-81910593D01*
X77542183Y-81922515D01*
X77572434Y-81939754D01*
X77589560Y-81952926D01*
X77597591Y-81960924D01*
X77612493Y-81968622D01*
X77613765Y-81964740D01*
X77615791Y-81941480D01*
X77617626Y-81899126D01*
X77619227Y-81839868D01*
X77620549Y-81765893D01*
X77621548Y-81679390D01*
X77622180Y-81582548D01*
X77622400Y-81477555D01*
X77622349Y-81408644D01*
X77622091Y-81310393D01*
X77621637Y-81220970D01*
X77621010Y-81142667D01*
X77620235Y-81077777D01*
X77619335Y-81028589D01*
X77618334Y-80997396D01*
X77617257Y-80986489D01*
X77614037Y-80987678D01*
X77596452Y-80997824D01*
X77570158Y-81014960D01*
X77557691Y-81023460D01*
X77543622Y-81032671D01*
X77529351Y-81040767D01*
X77513479Y-81047815D01*
X77494609Y-81053883D01*
X77471341Y-81059039D01*
X77442278Y-81063349D01*
X77406021Y-81066881D01*
X77361170Y-81069703D01*
X77306328Y-81071882D01*
X77240097Y-81073486D01*
X77161077Y-81074581D01*
X77067871Y-81075235D01*
X76959079Y-81075516D01*
X76833303Y-81075491D01*
X76689145Y-81075228D01*
X76525207Y-81074794D01*
X76340089Y-81074255D01*
X76161232Y-81073721D01*
X76002374Y-81073195D01*
X75863316Y-81072650D01*
X75742665Y-81072055D01*
X75639028Y-81071381D01*
X75551011Y-81070597D01*
X75477223Y-81069674D01*
X75416269Y-81068581D01*
X75366757Y-81067288D01*
X75327293Y-81065765D01*
X75296484Y-81063981D01*
X75272938Y-81061908D01*
X75255260Y-81059514D01*
X75242059Y-81056770D01*
X75231940Y-81053644D01*
X75223511Y-81050108D01*
X75215375Y-81046209D01*
X75178544Y-81026562D01*
X75148391Y-81007775D01*
X75146908Y-81006728D01*
X75124659Y-80992398D01*
X75111702Y-80986489D01*
X75111249Y-80987496D01*
X75109803Y-81004695D01*
X75108480Y-81041344D01*
X75107316Y-81095038D01*
X75106347Y-81163370D01*
X75105611Y-81243936D01*
X75105142Y-81334330D01*
X75104978Y-81432147D01*
X74288561Y-81432147D01*
X74288573Y-81431050D01*
X74270005Y-81324036D01*
X74230384Y-81217768D01*
X74172516Y-81120781D01*
X74097684Y-81035707D01*
X74009615Y-80966985D01*
X73910616Y-80916082D01*
X73802993Y-80884465D01*
X73689054Y-80873600D01*
X73592267Y-80873600D01*
X73592267Y-79253247D01*
X73592280Y-79042103D01*
X73592313Y-78907686D01*
X74201867Y-78907686D01*
X74264966Y-78869689D01*
X74290005Y-78855007D01*
X74317586Y-78840469D01*
X74345700Y-78828373D01*
X74376551Y-78818468D01*
X74412344Y-78810506D01*
X74455283Y-78804239D01*
X74507574Y-78799418D01*
X74571419Y-78795794D01*
X74649025Y-78793119D01*
X74742594Y-78791143D01*
X74854333Y-78789618D01*
X74986445Y-78788296D01*
X75106434Y-78787387D01*
X75223063Y-78786980D01*
X75318531Y-78787233D01*
X75392556Y-78788143D01*
X75444855Y-78789707D01*
X75475149Y-78791921D01*
X75483156Y-78794780D01*
X75479858Y-78797839D01*
X75458408Y-78815994D01*
X75421889Y-78845725D01*
X75372442Y-78885361D01*
X75312207Y-78933229D01*
X75243327Y-78987657D01*
X75167943Y-79046973D01*
X75088196Y-79109505D01*
X75006228Y-79173579D01*
X74924180Y-79237525D01*
X74844194Y-79299669D01*
X74768411Y-79358339D01*
X74698973Y-79411863D01*
X74638021Y-79458570D01*
X74587696Y-79496786D01*
X74550140Y-79524839D01*
X74527495Y-79541057D01*
X74455212Y-79586365D01*
X74375463Y-79626339D01*
X74307188Y-79647870D01*
X74249844Y-79651173D01*
X74201867Y-79645884D01*
X74202117Y-80777644D01*
X74232722Y-80738133D01*
X74240089Y-80728752D01*
X74294438Y-80665817D01*
X74362259Y-80597003D01*
X74445516Y-80520404D01*
X74546178Y-80434112D01*
X74566847Y-80416948D01*
X74616409Y-80376167D01*
X74677326Y-80326412D01*
X74747898Y-80269045D01*
X74826424Y-80205431D01*
X74911204Y-80136931D01*
X75000537Y-80064910D01*
X75092722Y-79990730D01*
X75111702Y-79975483D01*
X75186060Y-79915754D01*
X75278848Y-79841347D01*
X75369388Y-79768869D01*
X75455978Y-79699686D01*
X75536918Y-79635159D01*
X75610506Y-79576653D01*
X75675044Y-79525530D01*
X75728829Y-79483153D01*
X75770162Y-79450885D01*
X75797342Y-79430090D01*
X75808668Y-79422131D01*
X75812771Y-79423889D01*
X75833334Y-79436770D01*
X75869561Y-79461115D01*
X75919824Y-79495753D01*
X75982492Y-79539514D01*
X76055936Y-79591225D01*
X76138527Y-79649716D01*
X76228636Y-79713816D01*
X76324631Y-79782354D01*
X76424885Y-79854157D01*
X76527768Y-79928056D01*
X76631650Y-80002879D01*
X76734901Y-80077455D01*
X76835892Y-80150613D01*
X76932994Y-80221181D01*
X77024577Y-80287989D01*
X77109011Y-80349865D01*
X77184667Y-80405639D01*
X77249916Y-80454138D01*
X77303128Y-80494193D01*
X77342673Y-80524631D01*
X77368026Y-80545056D01*
X77422295Y-80591101D01*
X77478775Y-80641388D01*
X77528669Y-80688185D01*
X77622400Y-80779349D01*
X77622400Y-79624910D01*
X77546200Y-79625544D01*
X77504160Y-79624426D01*
X77468334Y-79618696D01*
X77430772Y-79606110D01*
X77382577Y-79584432D01*
X77375897Y-79581211D01*
X77326359Y-79555812D01*
X77278369Y-79529004D01*
X77241466Y-79506083D01*
X77234834Y-79501515D01*
X77203593Y-79479484D01*
X77158654Y-79447307D01*
X77102147Y-79406543D01*
X77036204Y-79358755D01*
X76962957Y-79305502D01*
X76884536Y-79248345D01*
X76803072Y-79188845D01*
X76720698Y-79128563D01*
X76639544Y-79069060D01*
X76561742Y-79011895D01*
X76489423Y-78958630D01*
X76424718Y-78910826D01*
X76369759Y-78870043D01*
X76326676Y-78837842D01*
X76297602Y-78815784D01*
X76284667Y-78805429D01*
X76280351Y-78800956D01*
X76278312Y-78796764D01*
X76280926Y-78793357D01*
X76289986Y-78790675D01*
X76307285Y-78788659D01*
X76334614Y-78787252D01*
X76373765Y-78786395D01*
X76426533Y-78786030D01*
X76494707Y-78786097D01*
X76580082Y-78786540D01*
X76684449Y-78787298D01*
X76809600Y-78788315D01*
X76854300Y-78788692D01*
X76975395Y-78789831D01*
X77076688Y-78791028D01*
X77160262Y-78792364D01*
X77228204Y-78793923D01*
X77282599Y-78795785D01*
X77325532Y-78798034D01*
X77359089Y-78800752D01*
X77385355Y-78804021D01*
X77406416Y-78807922D01*
X77424357Y-78812539D01*
X77450770Y-78820808D01*
X77512772Y-78844417D01*
X77565573Y-78870315D01*
X77602645Y-78895465D01*
X77604075Y-78896661D01*
X77608424Y-78898832D01*
X77612026Y-78896672D01*
X77614951Y-78888356D01*
X77617269Y-78872060D01*
X77619051Y-78845959D01*
X77620367Y-78808229D01*
X77621286Y-78757044D01*
X77621878Y-78690580D01*
X77622215Y-78607013D01*
X77622365Y-78504517D01*
X77622400Y-78381268D01*
X77622400Y-77849704D01*
X77564783Y-77888477D01*
X77555893Y-77894568D01*
X77541069Y-77905024D01*
X77527422Y-77914421D01*
X77513765Y-77922817D01*
X77498911Y-77930267D01*
X77481670Y-77936827D01*
X77460855Y-77942554D01*
X77435280Y-77947505D01*
X77403755Y-77951734D01*
X77365093Y-77955299D01*
X77318107Y-77958256D01*
X77261608Y-77960660D01*
X77194409Y-77962569D01*
X77115322Y-77964038D01*
X77023160Y-77965124D01*
X76916734Y-77965882D01*
X76794857Y-77966370D01*
X76656341Y-77966642D01*
X76499999Y-77966757D01*
X76324642Y-77966769D01*
X76129082Y-77966735D01*
X75912133Y-77966711D01*
X75789513Y-77966720D01*
X75584447Y-77966757D01*
X75400116Y-77966773D01*
X75235334Y-77966712D01*
X75088916Y-77966516D01*
X74959674Y-77966130D01*
X74846422Y-77965495D01*
X74747975Y-77964556D01*
X74663144Y-77963255D01*
X74590744Y-77961536D01*
X74529589Y-77959341D01*
X74478492Y-77956615D01*
X74436267Y-77953299D01*
X74401727Y-77949338D01*
X74373686Y-77944675D01*
X74350958Y-77939253D01*
X74332356Y-77933014D01*
X74316693Y-77925903D01*
X74302784Y-77917862D01*
X74289441Y-77908834D01*
X74275479Y-77898764D01*
X74259711Y-77887593D01*
X74201867Y-77847803D01*
X74201867Y-78907686D01*
X73592313Y-78907686D01*
X73592330Y-78837980D01*
X73592430Y-78654314D01*
X73592592Y-78490009D01*
X73592829Y-78343971D01*
X73593153Y-78215106D01*
X73593575Y-78102317D01*
X73594109Y-78004512D01*
X73594767Y-77920596D01*
X73595561Y-77849473D01*
X73596504Y-77790050D01*
X73597608Y-77741232D01*
X73598884Y-77701923D01*
X73600347Y-77671031D01*
X73602007Y-77647459D01*
X73603878Y-77630114D01*
X73605972Y-77617901D01*
X73608300Y-77609725D01*
X73610876Y-77604492D01*
X73614445Y-77598496D01*
X73617978Y-77591721D01*
X73621488Y-77585522D01*
X73625918Y-77579874D01*
X73632208Y-77574753D01*
X73641301Y-77570131D01*
X73654139Y-77565985D01*
X73671662Y-77562287D01*
X73694813Y-77559013D01*
X73724534Y-77556137D01*
X73761765Y-77553633D01*
X73807449Y-77551476D01*
X73862527Y-77549640D01*
X73927941Y-77548100D01*
X74004633Y-77546830D01*
X74093544Y-77545805D01*
X74195617Y-77544999D01*
X74201867Y-77544966D01*
X74311792Y-77544386D01*
X74443011Y-77543941D01*
X74590216Y-77543638D01*
X74754349Y-77543452D01*
X74936352Y-77543358D01*
X75137165Y-77543329D01*
X75357732Y-77543339D01*
X75598992Y-77543364D01*
X75861889Y-77543378D01*
X75904040Y-77543378D01*
X76164668Y-77543354D01*
X76403796Y-77543315D01*
X76622360Y-77543292D01*
X76821295Y-77543313D01*
G36*
X76821295Y-77543313D02*
G01*
X77001535Y-77543407D01*
X77164015Y-77543605D01*
X77309670Y-77543937D01*
X77439434Y-77544431D01*
X77554243Y-77545117D01*
X77655030Y-77546024D01*
X77742730Y-77547183D01*
X77818279Y-77548622D01*
X77882611Y-77550371D01*
X77936661Y-77552460D01*
X77981363Y-77554917D01*
X78017652Y-77557773D01*
X78046463Y-77561057D01*
X78068731Y-77564798D01*
X78085390Y-77569026D01*
X78097375Y-77573771D01*
X78105621Y-77579061D01*
X78111062Y-77584927D01*
X78114634Y-77591398D01*
X78117270Y-77598503D01*
X78119906Y-77606272D01*
X78123477Y-77614734D01*
X78125145Y-77619092D01*
X78127111Y-77627605D01*
X78128911Y-77640306D01*
X78130555Y-77658115D01*
X78132047Y-77681951D01*
X78133397Y-77712734D01*
X78134611Y-77751383D01*
X78135697Y-77798818D01*
X78136661Y-77855957D01*
X78137511Y-77923721D01*
X78138253Y-78003029D01*
X78138897Y-78094801D01*
X78139447Y-78199956D01*
X78139913Y-78319413D01*
X78140300Y-78454092D01*
X78140616Y-78604912D01*
X78140869Y-78772794D01*
X78141066Y-78958655D01*
X78141213Y-79163417D01*
X78141318Y-79387998D01*
X78141389Y-79633318D01*
X78141432Y-79900296D01*
X78141437Y-79938679D01*
X78141480Y-80204078D01*
X78141525Y-80447950D01*
X78141548Y-80671217D01*
X78141524Y-80874804D01*
X78141430Y-81059633D01*
X78141243Y-81226627D01*
X78140939Y-81376710D01*
X78140494Y-81510804D01*
X78139885Y-81629834D01*
X78139089Y-81734721D01*
X78138080Y-81826390D01*
X78136837Y-81905763D01*
X78135335Y-81973763D01*
X78133551Y-82031314D01*
X78131461Y-82079338D01*
X78129042Y-82118760D01*
X78126270Y-82150501D01*
X78123121Y-82175486D01*
X78119572Y-82194636D01*
X78115598Y-82208877D01*
X78111178Y-82219129D01*
X78106286Y-82226318D01*
X78100900Y-82231365D01*
X78094996Y-82235195D01*
X78088549Y-82238729D01*
X78081537Y-82242892D01*
X78079687Y-82243975D01*
X78074180Y-82246187D01*
X78065868Y-82248214D01*
X78053809Y-82250062D01*
X78037063Y-82251739D01*
X78014687Y-82253255D01*
X77985740Y-82254617D01*
X77949280Y-82255833D01*
X77904367Y-82256911D01*
X77850057Y-82257860D01*
X77785410Y-82258688D01*
X77709484Y-82259403D01*
X77621338Y-82260013D01*
X77520029Y-82260526D01*
X77404617Y-82260950D01*
X77274160Y-82261294D01*
X77127716Y-82261566D01*
X76964344Y-82261773D01*
X76783101Y-82261924D01*
X76583048Y-82262028D01*
X76363241Y-82262092D01*
X76122739Y-82262124D01*
X75860602Y-82262133D01*
X73669031Y-82262133D01*
X73630649Y-82223751D01*
X73606911Y-82196645D01*
X73595111Y-82169747D01*
X73592267Y-82133440D01*
X73592267Y-82081511D01*
X73680206Y-82081511D01*
X73730102Y-82079573D01*
X73840523Y-82060801D01*
X73941987Y-82023783D01*
X74033152Y-81970631D01*
X74112673Y-81903454D01*
X74179205Y-81824362D01*
X74231406Y-81735466D01*
X74267930Y-81638875D01*
X74287434Y-81536700D01*
X74288561Y-81432147D01*
X75104978Y-81432147D01*
X75104978Y-81877805D01*
X76281845Y-81880880D01*
X77458711Y-81883955D01*
X77517622Y-81910593D01*
X77542183Y-81922515D01*
X77572434Y-81939754D01*
X77589560Y-81952926D01*
X77597591Y-81960924D01*
X77612493Y-81968622D01*
X77613765Y-81964740D01*
X77615791Y-81941480D01*
X77617626Y-81899126D01*
X77619227Y-81839868D01*
X77620549Y-81765893D01*
X77621548Y-81679390D01*
X77622180Y-81582548D01*
X77622400Y-81477555D01*
X77622349Y-81408644D01*
X77622091Y-81310393D01*
X77621637Y-81220970D01*
X77621010Y-81142667D01*
X77620235Y-81077777D01*
X77619335Y-81028589D01*
X77618334Y-80997396D01*
X77617257Y-80986489D01*
X77614037Y-80987678D01*
X77596452Y-80997824D01*
X77570158Y-81014960D01*
X77557691Y-81023460D01*
X77543622Y-81032671D01*
X77529351Y-81040767D01*
X77513479Y-81047815D01*
X77494609Y-81053883D01*
X77471341Y-81059039D01*
X77442278Y-81063349D01*
X77406021Y-81066881D01*
X77361170Y-81069703D01*
X77306328Y-81071882D01*
X77240097Y-81073486D01*
X77161077Y-81074581D01*
X77067871Y-81075235D01*
X76959079Y-81075516D01*
X76833303Y-81075491D01*
X76689145Y-81075228D01*
X76525207Y-81074794D01*
X76340089Y-81074255D01*
X76161232Y-81073721D01*
X76002374Y-81073195D01*
X75863316Y-81072650D01*
X75742665Y-81072055D01*
X75639028Y-81071381D01*
X75551011Y-81070597D01*
X75477223Y-81069674D01*
X75416269Y-81068581D01*
X75366757Y-81067288D01*
X75327293Y-81065765D01*
X75296484Y-81063981D01*
X75272938Y-81061908D01*
X75255260Y-81059514D01*
X75242059Y-81056770D01*
X75231940Y-81053644D01*
X75223511Y-81050108D01*
X75215375Y-81046209D01*
X75178544Y-81026562D01*
X75148391Y-81007775D01*
X75146908Y-81006728D01*
X75124659Y-80992398D01*
X75111702Y-80986489D01*
X75111249Y-80987496D01*
X75109803Y-81004695D01*
X75108480Y-81041344D01*
X75107316Y-81095038D01*
X75106347Y-81163370D01*
X75105611Y-81243936D01*
X75105142Y-81334330D01*
X75104978Y-81432147D01*
X74288561Y-81432147D01*
X74288573Y-81431050D01*
X74270005Y-81324036D01*
X74230384Y-81217768D01*
X74172516Y-81120781D01*
X74097684Y-81035707D01*
X74009615Y-80966985D01*
X73910616Y-80916082D01*
X73802993Y-80884465D01*
X73689054Y-80873600D01*
X73592267Y-80873600D01*
X73592267Y-79253247D01*
X73592280Y-79042103D01*
X73592313Y-78907686D01*
X74201867Y-78907686D01*
X74264966Y-78869689D01*
X74290005Y-78855007D01*
X74317586Y-78840469D01*
X74345700Y-78828373D01*
X74376551Y-78818468D01*
X74412344Y-78810506D01*
X74455283Y-78804239D01*
X74507574Y-78799418D01*
X74571419Y-78795794D01*
X74649025Y-78793119D01*
X74742594Y-78791143D01*
X74854333Y-78789618D01*
X74986445Y-78788296D01*
X75106434Y-78787387D01*
X75223063Y-78786980D01*
X75318531Y-78787233D01*
X75392556Y-78788143D01*
X75444855Y-78789707D01*
X75475149Y-78791921D01*
X75483156Y-78794780D01*
X75479858Y-78797839D01*
X75458408Y-78815994D01*
X75421889Y-78845725D01*
X75372442Y-78885361D01*
X75312207Y-78933229D01*
X75243327Y-78987657D01*
X75167943Y-79046973D01*
X75088196Y-79109505D01*
X75006228Y-79173579D01*
X74924180Y-79237525D01*
X74844194Y-79299669D01*
X74768411Y-79358339D01*
X74698973Y-79411863D01*
X74638021Y-79458570D01*
X74587696Y-79496786D01*
X74550140Y-79524839D01*
X74527495Y-79541057D01*
X74455212Y-79586365D01*
X74375463Y-79626339D01*
X74307188Y-79647870D01*
X74249844Y-79651173D01*
X74201867Y-79645884D01*
X74202117Y-80777644D01*
X74232722Y-80738133D01*
X74240089Y-80728752D01*
X74294438Y-80665817D01*
X74362259Y-80597003D01*
X74445516Y-80520404D01*
X74546178Y-80434112D01*
X74566847Y-80416948D01*
X74616409Y-80376167D01*
X74677326Y-80326412D01*
X74747898Y-80269045D01*
X74826424Y-80205431D01*
X74911204Y-80136931D01*
X75000537Y-80064910D01*
X75092722Y-79990730D01*
X75111702Y-79975483D01*
X75186060Y-79915754D01*
X75278848Y-79841347D01*
X75369388Y-79768869D01*
X75455978Y-79699686D01*
X75536918Y-79635159D01*
X75610506Y-79576653D01*
X75675044Y-79525530D01*
X75728829Y-79483153D01*
X75770162Y-79450885D01*
X75797342Y-79430090D01*
X75808668Y-79422131D01*
X75812771Y-79423889D01*
X75833334Y-79436770D01*
X75869561Y-79461115D01*
X75919824Y-79495753D01*
X75982492Y-79539514D01*
X76055936Y-79591225D01*
X76138527Y-79649716D01*
X76228636Y-79713816D01*
X76324631Y-79782354D01*
X76424885Y-79854157D01*
X76527768Y-79928056D01*
X76631650Y-80002879D01*
X76734901Y-80077455D01*
X76835892Y-80150613D01*
X76932994Y-80221181D01*
X77024577Y-80287989D01*
X77109011Y-80349865D01*
X77184667Y-80405639D01*
X77249916Y-80454138D01*
X77303128Y-80494193D01*
X77342673Y-80524631D01*
X77368026Y-80545056D01*
X77422295Y-80591101D01*
X77478775Y-80641388D01*
X77528669Y-80688185D01*
X77622400Y-80779349D01*
X77622400Y-79624910D01*
X77546200Y-79625544D01*
X77504160Y-79624426D01*
X77468334Y-79618696D01*
X77430772Y-79606110D01*
X77382577Y-79584432D01*
X77375897Y-79581211D01*
X77326359Y-79555812D01*
X77278369Y-79529004D01*
X77241466Y-79506083D01*
X77234834Y-79501515D01*
X77203593Y-79479484D01*
X77158654Y-79447307D01*
X77102147Y-79406543D01*
X77036204Y-79358755D01*
X76962957Y-79305502D01*
X76884536Y-79248345D01*
X76803072Y-79188845D01*
X76720698Y-79128563D01*
X76639544Y-79069060D01*
X76561742Y-79011895D01*
X76489423Y-78958630D01*
X76424718Y-78910826D01*
X76369759Y-78870043D01*
X76326676Y-78837842D01*
X76297602Y-78815784D01*
X76284667Y-78805429D01*
X76280351Y-78800956D01*
X76278312Y-78796764D01*
X76280926Y-78793357D01*
X76289986Y-78790675D01*
X76307285Y-78788659D01*
X76334614Y-78787252D01*
X76373765Y-78786395D01*
X76426533Y-78786030D01*
X76494707Y-78786097D01*
X76580082Y-78786540D01*
X76684449Y-78787298D01*
X76809600Y-78788315D01*
X76854300Y-78788692D01*
X76975395Y-78789831D01*
X77076688Y-78791028D01*
X77160262Y-78792364D01*
X77228204Y-78793923D01*
X77282599Y-78795785D01*
X77325532Y-78798034D01*
X77359089Y-78800752D01*
X77385355Y-78804021D01*
X77406416Y-78807922D01*
X77424357Y-78812539D01*
X77450770Y-78820808D01*
X77512772Y-78844417D01*
X77565573Y-78870315D01*
X77602645Y-78895465D01*
X77604075Y-78896661D01*
X77608424Y-78898832D01*
X77612026Y-78896672D01*
X77614951Y-78888356D01*
X77617269Y-78872060D01*
X77619051Y-78845959D01*
X77620367Y-78808229D01*
X77621286Y-78757044D01*
X77621878Y-78690580D01*
X77622215Y-78607013D01*
X77622365Y-78504517D01*
X77622400Y-78381268D01*
X77622400Y-77849704D01*
X77564783Y-77888477D01*
X77555893Y-77894568D01*
X77541069Y-77905024D01*
X77527422Y-77914421D01*
X77513765Y-77922817D01*
X77498911Y-77930267D01*
X77481670Y-77936827D01*
X77460855Y-77942554D01*
X77435280Y-77947505D01*
X77403755Y-77951734D01*
X77365093Y-77955299D01*
X77318107Y-77958256D01*
X77261608Y-77960660D01*
X77194409Y-77962569D01*
X77115322Y-77964038D01*
X77023160Y-77965124D01*
X76916734Y-77965882D01*
X76794857Y-77966370D01*
X76656341Y-77966642D01*
X76499999Y-77966757D01*
X76324642Y-77966769D01*
X76129082Y-77966735D01*
X75912133Y-77966711D01*
X75789513Y-77966720D01*
X75584447Y-77966757D01*
X75400116Y-77966773D01*
X75235334Y-77966712D01*
X75088916Y-77966516D01*
X74959674Y-77966130D01*
X74846422Y-77965495D01*
X74747975Y-77964556D01*
X74663144Y-77963255D01*
X74590744Y-77961536D01*
X74529589Y-77959341D01*
X74478492Y-77956615D01*
X74436267Y-77953299D01*
X74401727Y-77949338D01*
X74373686Y-77944675D01*
X74350958Y-77939253D01*
X74332356Y-77933014D01*
X74316693Y-77925903D01*
X74302784Y-77917862D01*
X74289441Y-77908834D01*
X74275479Y-77898764D01*
X74259711Y-77887593D01*
X74201867Y-77847803D01*
X74201867Y-78907686D01*
X73592313Y-78907686D01*
X73592330Y-78837980D01*
X73592430Y-78654314D01*
X73592592Y-78490009D01*
X73592829Y-78343971D01*
X73593153Y-78215106D01*
X73593575Y-78102317D01*
X73594109Y-78004512D01*
X73594767Y-77920596D01*
X73595561Y-77849473D01*
X73596504Y-77790050D01*
X73597608Y-77741232D01*
X73598884Y-77701923D01*
X73600347Y-77671031D01*
X73602007Y-77647459D01*
X73603878Y-77630114D01*
X73605972Y-77617901D01*
X73608300Y-77609725D01*
X73610876Y-77604492D01*
X73614445Y-77598496D01*
X73617978Y-77591721D01*
X73621488Y-77585522D01*
X73625918Y-77579874D01*
X73632208Y-77574753D01*
X73641301Y-77570131D01*
X73654139Y-77565985D01*
X73671662Y-77562287D01*
X73694813Y-77559013D01*
X73724534Y-77556137D01*
X73761765Y-77553633D01*
X73807449Y-77551476D01*
X73862527Y-77549640D01*
X73927941Y-77548100D01*
X74004633Y-77546830D01*
X74093544Y-77545805D01*
X74195617Y-77544999D01*
X74201867Y-77544966D01*
X74311792Y-77544386D01*
X74443011Y-77543941D01*
X74590216Y-77543638D01*
X74754349Y-77543452D01*
X74936352Y-77543358D01*
X75137165Y-77543329D01*
X75357732Y-77543339D01*
X75598992Y-77543364D01*
X75861889Y-77543378D01*
X75904040Y-77543378D01*
X76164668Y-77543354D01*
X76403796Y-77543315D01*
X76622360Y-77543292D01*
X76821295Y-77543313D01*
G37*
%TD*%
M02*
