%TF.GenerationSoftware,KiCad,Pcbnew,10.0.1*%
%TF.CreationDate,2026-05-08T12:29:21-05:00*%
%TF.ProjectId,Breadboard Power Supply,42726561-6462-46f6-9172-6420506f7765,2*%
%TF.SameCoordinates,Original*%
%TF.FileFunction,Soldermask,Bot*%
%TF.FilePolarity,Negative*%
%FSLAX46Y46*%
G04 Gerber Fmt 4.6, Leading zero omitted, Abs format (unit mm)*
G04 Created by KiCad (PCBNEW 10.0.1) date 2026-05-08 12:29:21*
%MOMM*%
%LPD*%
G01*
G04 APERTURE LIST*
G04 Aperture macros list*
%AMRoundRect*
0 Rectangle with rounded corners*
0 $1 Rounding radius*
0 $2 $3 $4 $5 $6 $7 $8 $9 X,Y pos of 4 corners*
0 Add a 4 corners polygon primitive as box body*
4,1,4,$2,$3,$4,$5,$6,$7,$8,$9,$2,$3,0*
0 Add four circle primitives for the rounded corners*
1,1,$1+$1,$2,$3*
1,1,$1+$1,$4,$5*
1,1,$1+$1,$6,$7*
1,1,$1+$1,$8,$9*
0 Add four rect primitives between the rounded corners*
20,1,$1+$1,$2,$3,$4,$5,0*
20,1,$1+$1,$4,$5,$6,$7,0*
20,1,$1+$1,$6,$7,$8,$9,0*
20,1,$1+$1,$8,$9,$2,$3,0*%
G04 Aperture macros list end*
%ADD10C,1.400000*%
%ADD11R,3.000000X3.000000*%
%ADD12C,3.000000*%
%ADD13R,1.700000X1.700000*%
%ADD14C,1.700000*%
%ADD15R,3.500000X3.500000*%
%ADD16RoundRect,0.750000X-0.750000X-1.000000X0.750000X-1.000000X0.750000X1.000000X-0.750000X1.000000X0*%
%ADD17RoundRect,0.875000X-0.875000X-0.875000X0.875000X-0.875000X0.875000X0.875000X-0.875000X0.875000X0*%
%ADD18R,1.900000X1.900000*%
%ADD19C,1.900000*%
%ADD20C,1.600000*%
%ADD21R,1.800000X1.800000*%
%ADD22C,1.800000*%
%ADD23R,1.905000X2.000000*%
%ADD24O,1.905000X2.000000*%
G04 APERTURE END LIST*
D10*
%TO.C,R1*%
X77216000Y-63246000D03*
X84836000Y-63246000D03*
%TD*%
D11*
%TO.C,J3*%
X81280000Y-93538000D03*
D12*
X86360000Y-93538000D03*
%TD*%
D13*
%TO.C,J6*%
X91948000Y-47498000D03*
D14*
X91948000Y-50038000D03*
%TD*%
D15*
%TO.C,J1*%
X75692000Y-70358000D03*
D16*
X69692000Y-70358000D03*
D17*
X72692000Y-75058000D03*
%TD*%
D18*
%TO.C,S1*%
X81200000Y-57404000D03*
D19*
X78700000Y-57404000D03*
X76200000Y-57404000D03*
%TD*%
D20*
%TO.C,C1*%
X71100000Y-56388000D03*
X68600000Y-56388000D03*
%TD*%
D21*
%TO.C,D1*%
X81534000Y-71882000D03*
D22*
X81534000Y-69342000D03*
%TD*%
D20*
%TO.C,C2*%
X66528000Y-90424000D03*
X64028000Y-90424000D03*
%TD*%
D13*
%TO.C,J4*%
X65786000Y-95250000D03*
D14*
X68326000Y-95250000D03*
X70866000Y-95250000D03*
%TD*%
D13*
%TO.C,J5*%
X91694000Y-93213000D03*
D14*
X91694000Y-95753000D03*
%TD*%
D23*
%TO.C,U1*%
X66802000Y-85598000D03*
D24*
X69342000Y-85598000D03*
X71882000Y-85598000D03*
%TD*%
D20*
%TO.C,C3*%
X65766000Y-56388000D03*
X63266000Y-56388000D03*
%TD*%
D10*
%TO.C,R3*%
X80500000Y-79507000D03*
X88120000Y-79507000D03*
%TD*%
D11*
%TO.C,J2*%
X81280000Y-49728000D03*
D12*
X86360000Y-49728000D03*
%TD*%
D23*
%TO.C,U2*%
X69596000Y-60960000D03*
D24*
X67056000Y-60960000D03*
X64516000Y-60960000D03*
%TD*%
D13*
%TO.C,J7*%
X66294000Y-47498000D03*
D14*
X68834000Y-47498000D03*
X71374000Y-47498000D03*
%TD*%
D10*
%TO.C,R2*%
X88138000Y-83825000D03*
X80518000Y-83825000D03*
%TD*%
M02*
